<?xml version="1.0" standalone="no"?>
<!DOCTYPE svg PUBLIC "-//W3C//DTD SVG 20010904//EN" "http://www.w3.org/TR/2001/REC-SVG-20010904/DTD/svg10.dtd">
<!-- Created using Krita: https://krita.org -->
<svg xmlns="http://www.w3.org/2000/svg" 
    xmlns:xlink="http://www.w3.org/1999/xlink"
    xmlns:krita="http://krita.org/namespaces/svg/krita"
    xmlns:sodipodi="http://sodipodi.sourceforge.net/DTD/sodipodi-0.dtd"
    width="122.88pt"
    height="122.88pt"
    viewBox="0 0 122.88 122.88">
<defs/>
<path id="shape0" transform="translate(5.05671, 5.05632)" fill="#ffffff" fill-rule="evenodd" stroke-opacity="0" stroke="#000000" stroke-width="0" stroke-linecap="square" stroke-linejoin="bevel" d="M40.3317 19.2177L40.6691 18.6125L41.0013 18.0169L41.3283 17.4311L41.6502 16.8549L41.9673 16.2884L42.2797 15.7315L42.5874 15.1844L42.8906 14.6469L43.1894 14.1192L43.484 13.6011L43.7745 13.0927L44.061 12.594L44.3436 12.1049L44.6225 11.6256L44.8977 11.1559L45.1696 10.6959L45.438 10.2456L45.7032 9.80498L45.9654 9.37408L46.2246 8.95278L46.4809 8.54118L46.7346 8.13938L46.9856 7.74718L47.2342 7.36458L47.4805 6.99178L47.7246 6.62868L47.9666 6.27518L48.2067 5.93138L48.4449 5.59728L48.6815 5.27288L48.9166 4.95818L49.1502 4.65313L49.3825 4.35777L49.6136 4.07209L49.8437 3.7961L50.0729 3.52979L50.3013 3.27317L50.529 3.02623L50.7562 2.78897L50.983 2.5614L51.2095 2.34351L51.4359 2.13531L51.6623 1.93679L51.8888 1.74795L52.1155 1.5688L52.3426 1.39933L52.5701 1.23954L52.7983 1.08944L53.0273 0.94902L53.2571 0.81829L53.488 0.69724L53.7199 0.58588L53.9532 0.4842L54.1878 0.3922L54.424 0.30988L54.6617 0.23725L54.9013 0.17431L55.1428 0.12105L55.3863 0.07747L55.632 0.04358L55.8799 0.01937L56.1303 0.00484L56.3832 0L56.6362 0.00484L56.8865 0.01937L57.1345 0.04358L57.3802 0.07747L57.6237 0.12105L57.8652 0.17431L58.1047 0.23725L58.3425 0.30988L58.5787 0.39219L58.8133 0.48419L59.0465 0.58587L59.2785 0.69724L59.5094 0.81828L59.7392 0.94902L59.9681 1.08943L60.1963 1.23953L60.4239 1.39932L60.651 1.56878L60.8777 1.74794L61.1042 1.93677L61.3305 2.13529L61.5569 2.34349L61.7835 2.56138L62.0103 2.78895L62.2375 3.02621L62.4652 3.27315L62.6936 3.52977L62.9228 3.79608L63.1528 4.07207L63.384 4.35774L63.6163 4.6531L63.8499 4.95818L64.0849 5.27288L64.3215 5.59728L64.5598 5.93138L64.7998 6.27518L65.0419 6.62858L65.2859 6.99178L65.5322 7.36458L65.7808 7.74708L66.0319 8.13928L66.2855 8.54118L66.5418 8.95278L66.801 9.37398L67.0632 9.80488L67.3284 10.2456L67.5968 10.6959L67.8686 11.1558L68.1439 11.6255L68.4228 12.1049L68.7054 12.5939L68.9919 13.0926L69.2823 13.601L69.5769 14.1191L69.8757 14.6469L70.1789 15.1843L70.4866 15.7315L70.799 16.2883L71.116 16.8548L71.438 17.431L71.765 18.0169L72.0971 18.6124L72.4345 19.2177L74.2822 22.5323L74.4959 22.9154L74.7022 23.285L74.9016 23.6413L75.0946 23.9846L75.2815 24.3153L75.4628 24.6338L75.6389 24.9403L75.8103 25.2351L75.9774 25.5186L76.1406 25.7912L76.3004 26.0531L76.4571 26.3047L76.6113 26.5463L76.7633 26.7782L76.9136 27.0008L77.0627 27.2144L77.2109 27.4193L77.3586 27.6159L77.5065 27.8044L77.6547 27.9853L77.8039 28.1588L77.9543 28.3252L78.1065 28.4849L78.2609 28.6383L78.418 28.7856L78.578 28.9272L78.7416 29.0633L78.9091 29.1945L79.0634 29.3084L79.2205 29.4178L79.3807 29.523L79.5443 29.6243L79.7115 29.7217L79.8828 29.8157L80.0584 29.9064L80.2386 29.9941L80.4239 30.079L80.6144 30.1613L80.8105 30.2414L81.0126 30.3194L81.2209 30.3956L81.4358 30.4703L81.6575 30.5436L81.8865 30.6158L82.123 30.6871L82.3673 30.7579L82.6198 30.8283L82.8808 30.8986L83.1506 30.969L83.4295 31.0398L83.7178 31.1112L84.0159 31.1834L84.324 31.2567L84.6426 31.3314L84.9719 31.4076L85.3122 31.4856L85.6638 31.5657L86.0271 31.6481L86.4024 31.7331L89.9907 32.5449L90.6458 32.6932L91.2906 32.8392L91.9249 32.9831L92.5488 33.125L93.1624 33.265L93.7658 33.4033L94.3589 33.54L94.9418 33.6753L95.5143 33.8091L96.0773 33.9418L96.6293 34.0733L97.1723 34.2039L97.7043 34.3336L98.2273 34.4626L98.7393 34.591L99.2423 34.719L99.7353 34.8466L100.218 34.974L100.691 35.1014L101.155 35.2288L101.608 35.3563L102.053 35.4842L102.487 35.6125L102.912 35.7413L103.328 35.8708L103.734 36.0012L104.13 36.1324L104.517 36.2648L104.895 36.3983L105.263 36.5332L105.622 36.6695L105.972 36.8073L106.313 36.9469L106.644 37.0883L106.967 37.2317L107.28 37.3771L107.584 37.5248L107.879 37.6748L108.165 37.8272L108.443 37.9823L108.711 38.1401L108.97 38.3007L109.221 38.4643L109.463 38.631L109.696 38.8009L109.921 38.9742L110.136 39.151L110.343 39.3313L110.542 39.5155L110.732 39.7034L110.914 39.8954L111.087 40.0915L111.251 40.2919L111.407 40.4966L111.555 40.7058L111.695 40.9197L111.826 41.1383L111.949 41.3618L112.064 41.5903L112.171 41.8239L112.27 42.0628L112.36 42.3071L112.443 42.557L112.517 42.8098L112.581 43.063L112.635 43.3169L112.68 43.5715L112.716 43.8269L112.742 44.0833L112.759 44.3408L112.766 44.5996L112.764 44.8597L112.753 45.1212L112.733 45.3844L112.703 45.6493L112.664 45.9161L112.616 46.1849L112.559 46.4558L112.493 46.729L112.418 47.0045L112.334 47.2825L112.241 47.5632L112.139 47.8466L112.028 48.1329L111.909 48.4222L111.78 48.7146L111.643 49.0103L111.497 49.3094L111.343 49.612L111.18 49.9183L111.008 50.2283L110.828 50.5422L110.64 50.8602L110.443 51.1823L110.237 51.5087L110.023 51.8396L109.801 52.1749L109.571 52.5149L109.332 52.8597L109.085 53.2095L108.83 53.5642L108.567 53.9242L108.295 54.2894L108.016 54.6601L107.728 55.0364L107.433 55.4183L107.13 55.806L106.818 56.1997L106.499 56.5994L106.172 57.0053L105.838 57.4176L105.495 57.8363L105.145 58.2615L104.787 58.6935L104.422 59.1323L104.049 59.578L103.668 60.0309L103.28 60.4909L102.885 60.9583L102.482 61.4331L102.072 61.9156L101.654 62.4057L101.229 62.9037L100.797 63.4097L100.357 63.9238L99.9113 64.4461L97.4653 67.3064L97.1823 67.6371L96.9093 67.9563L96.6473 68.2646L96.3943 68.5624L96.1503 68.8503L95.9173 69.1288L95.6923 69.3986L95.4773 69.66L95.2703 69.9136L95.0723 70.16L94.8837 70.3997L94.7031 70.6332L94.5308 70.8611L94.3667 71.0838L94.2105 71.302L94.0621 71.5161L93.9214 71.7267L93.7881 71.9342L93.6622 72.1394L93.5434 72.3426L93.4315 72.5444L93.3265 72.7453L93.2281 72.9459L93.1362 73.1467L93.0507 73.3483L92.9712 73.5511L92.8978 73.7556L92.8302 73.9625L92.779 74.1345L92.7319 74.3075L92.6888 74.4819L92.6496 74.658L92.6142 74.8361L92.5825 75.0164L92.5545 75.1993L92.5301 75.3851L92.509 75.574L92.4914 75.7664L92.477 75.9626L92.4658 76.1628L92.4576 76.3673L92.4525 76.5766L92.4502 76.7907L92.4508 77.0101L92.454 77.2351L92.4599 77.4658L92.4683 77.7027L92.4792 77.9461L92.4924 78.1961L92.5078 78.4532L92.5254 78.7176L92.5451 78.9896L92.5667 79.2696L92.5903 79.5577L92.6156 79.8544L92.6426 80.1598L92.6712 80.4744L92.7014 80.7983L92.7329 81.132L92.7658 81.4756L92.8 81.8295L92.8352 82.194L93.2051 86.0101L93.2726 86.7069L93.3389 87.3927L93.404 88.0675L93.4676 88.7314L93.5298 89.3845L93.5903 90.0268L93.6492 90.6584L93.7062 91.2795L93.7614 91.89L93.8145 92.49L93.8655 93.0797L93.9143 93.6592L93.9607 94.2284L94.0048 94.7874L94.0463 95.3367L94.0851 95.8757L94.1213 96.4047L94.1546 96.9237L94.1849 97.4337L94.2122 97.9337L94.2363 98.4237L94.2572 98.9047L94.2747 99.3767L94.2888 99.8387L94.2993 100.292L94.3061 100.736L94.3092 101.17L94.3083 101.596L94.3035 102.012L94.2946 102.42L94.2815 102.819L94.2641 103.209L94.2424 103.591L94.2161 103.964L94.1852 104.329L94.1496 104.685L94.1092 105.033L94.0639 105.372L94.0136 105.704L93.9581 106.027L93.8974 106.343L93.8314 106.65L93.7599 106.95L93.683 107.241L93.6003 107.526L93.512 107.802L93.4178 108.071L93.3176 108.333L93.2114 108.587L93.099 108.834L92.9803 109.074L92.8553 109.306L92.7238 109.532L92.5858 109.75L92.4411 109.962L92.2895 110.167L92.1312 110.365L91.9658 110.556L91.7933 110.741L91.6136 110.919L91.4267 111.091L91.2323 111.257L91.0304 111.416L90.8231 111.567L90.6123 111.709L90.3981 111.842L90.1802 111.965L89.9587 112.08L89.7334 112.185L89.5041 112.281L89.2709 112.368L89.0335 112.447L88.792 112.516L88.546 112.577L88.2957 112.63L88.0409 112.674L87.7814 112.709L87.5171 112.736L87.2481 112.755L86.9741 112.765L86.695 112.768L86.4108 112.762L86.1214 112.748L85.8265 112.727L85.5263 112.697L85.2204 112.66L84.9089 112.615L84.5916 112.563L84.2684 112.503L83.9393 112.435L83.6041 112.361L83.2627 112.279L82.9149 112.19L82.5609 112.093L82.2003 111.99L81.8331 111.88L81.4591 111.763L81.0784 111.639L80.6908 111.508L80.2962 111.371L79.8944 111.227L79.4854 111.076L79.0691 110.92L78.6454 110.757L78.2141 110.587L77.7752 110.412L77.3285 110.23L76.874 110.042L76.4115 109.849L75.941 109.65L75.4624 109.444L74.9754 109.233L74.4802 109.017L73.9764 108.795L73.4641 108.567L72.9431 108.334L72.4133 108.096L71.8746 107.853L71.327 107.604L70.7702 107.351L70.2043 107.092L69.6291 106.828L69.0445 106.56L68.4503 106.287L67.8466 106.009L67.2331 105.727L63.8738 104.179L63.5224 104.018L63.1822 103.861L62.8526 103.71L62.5335 103.564L62.2242 103.424L61.9245 103.288L61.634 103.159L61.3522 103.034L61.0788 102.915L60.8133 102.801L60.5555 102.692L60.3048 102.588L60.0609 102.49L59.8234 102.397L59.592 102.31L59.3661 102.228L59.1454 102.151L58.9296 102.079L58.7182 102.013L58.5108 101.952L58.3071 101.896L58.1066 101.846L57.9089 101.801L57.7138 101.761L57.5206 101.726L57.3292 101.697L57.139 101.673L56.9497 101.655L56.7609 101.642L56.5722 101.634L56.3832 101.631L56.1942 101.634L56.0055 101.642L55.8167 101.655L55.6274 101.673L55.4373 101.697L55.2458 101.726L55.0527 101.761L54.8575 101.801L54.6599 101.846L54.4594 101.896L54.2557 101.952L54.0483 102.013L53.8369 102.079L53.6211 102.151L53.4004 102.228L53.1745 102.31L52.943 102.397L52.7055 102.49L52.4617 102.588L52.211 102.692L51.9531 102.801L51.6877 102.915L51.4143 103.034L51.1325 103.159L50.842 103.288L50.5423 103.424L50.233 103.564L49.9138 103.71L49.5843 103.861L49.2441 104.018L48.8927 104.179L45.5333 105.727L44.9199 106.009L44.3161 106.287L43.722 106.56L43.1374 106.828L42.5621 107.092L41.9962 107.351L41.4395 107.604L40.8918 107.853L40.3531 108.096L39.8234 108.334L39.3024 108.567L38.79 108.795L38.2863 109.017L37.791 109.233L37.3041 109.444L36.8254 109.65L36.3549 109.849L35.8924 110.042L35.4379 110.23L34.9913 110.412L34.5523 110.587L34.1211 110.757L33.6973 110.92L33.281 111.076L32.872 111.227L32.4703 111.371L32.0756 111.508L31.688 111.639L31.3073 111.763L30.9334 111.88L30.5662 111.99L30.2056 112.093L29.8515 112.19L29.5038 112.279L29.1624 112.361L28.8272 112.435L28.498 112.503L28.1749 112.563L27.8576 112.615L27.5461 112.66L27.2402 112.697L26.94 112.727L26.6451 112.748L26.3557 112.762L26.0715 112.768L25.7924 112.765L25.5185 112.755L25.2494 112.736L24.9852 112.709L24.7257 112.674L24.4709 112.63L24.2205 112.577L23.9747 112.516L23.7331 112.447L23.4957 112.368L23.2625 112.281L23.0333 112.185L22.808 112.08L22.5864 111.965L22.3686 111.842L22.1544 111.709L21.9437 111.567L21.7364 111.416L21.5345 111.257L21.3401 111.091L21.1531 110.919L20.9734 110.741L20.801 110.556L20.6356 110.365L20.4772 110.167L20.3256 109.962L20.1809 109.75L20.0428 109.532L19.9113 109.306L19.7863 109.074L19.6677 108.834L19.5553 108.587L19.4491 108.333L19.3489 108.071L19.2546 107.802L19.1663 107.526L19.0836 107.241L19.0066 106.95L18.9352 106.65L18.8692 106.343L18.8085 106.027L18.753 105.704L18.7027 105.372L18.6573 105.033L18.6169 104.685L18.5813 104.329L18.5504 103.964L18.5242 103.591L18.5024 103.209L18.485 102.819L18.4719 102.42L18.463 102.012L18.4582 101.596L18.4573 101.17L18.4604 100.736L18.4672 100.292L18.4777 99.8387L18.4917 99.3767L18.5092 98.9047L18.5301 98.4237L18.5543 97.9337L18.5816 97.4337L18.6119 96.9237L18.6452 96.4047L18.6813 95.8757L18.7202 95.3367L18.7617 94.7874L18.8057 94.2284L18.8522 93.6592L18.901 93.0797L18.952 92.49L19.0051 91.89L19.0602 91.2795L19.1173 90.6584L19.1761 90.0268L19.2367 89.3845L19.2988 88.7314L19.3625 88.0675L19.4275 87.3927L19.4938 86.7069L19.5614 86.0101L19.9311 82.194L19.9664 81.8295L20.0006 81.4756L20.0335 81.132L20.0651 80.7983L20.0952 80.4744L20.1239 80.1598L20.1509 79.8544L20.1763 79.5577L20.1998 79.2696L20.2215 78.9896L20.2412 78.7176L20.2588 78.4532L20.2742 78.1961L20.2874 77.9461L20.2983 77.7027L20.3067 77.4658L20.3126 77.2351L20.3158 77.0101L20.3164 76.7907L20.3141 76.5766L20.309 76.3673L20.3008 76.1628L20.2896 75.9626L20.2752 75.7664L20.2575 75.574L20.2365 75.3851L20.212 75.1993L20.1839 75.0164L20.1523 74.8361L20.1168 74.658L20.0776 74.4819L20.0345 74.3075L19.9873 74.1345L19.9361 73.9625L19.8685 73.7556L19.7951 73.5511L19.7156 73.3483L19.6301 73.1467L19.5382 72.9459L19.4398 72.7453L19.3348 72.5444L19.223 72.3426L19.1042 72.1394L18.9783 71.9342L18.845 71.7267L18.7043 71.5161L18.556 71.302L18.3998 71.0838L18.2357 70.8611L18.0634 70.6332L17.8828 70.3997L17.6938 70.16L17.4962 69.9136L17.2897 69.66L17.0743 69.3986L16.8498 69.1288L16.6159 68.8503L16.3727 68.5624L16.1198 68.2646L15.8571 67.9563L15.5844 67.6371L15.3017 67.3064L12.8557 64.4461L12.409 63.9238L11.9696 63.4097L11.5373 62.9037L11.1124 62.4057L10.6947 61.9156L10.2844 61.4331L9.88139 60.9583L9.48589 60.4909L9.09789 60.0309L8.71729 59.578L8.34429 59.1323L7.97889 58.6935L7.62109 58.2615L7.27099 57.8363L6.92849 57.4176L6.59379 57.0053L6.26689 56.5994L5.94779 56.1997L5.63659 55.806L5.33319 55.4183L5.03779 55.0364L4.75041 54.6601L4.471 54.2894L4.19965 53.9242L3.9364 53.5642L3.68128 53.2095L3.43434 52.8597L3.19561 52.5149L2.96514 52.1749L2.74296 51.8396L2.52912 51.5087L2.32365 51.1823L2.12659 50.8602L1.93799 50.5422L1.75787 50.2283L1.58629 49.9183L1.42329 49.612L1.26889 49.3094L1.12314 49.0103L0.98609 48.7146L0.85776 48.4222L0.7382 48.1329L0.62746 47.8466L0.52556 47.5632L0.43255 47.2825L0.34846 47.0045L0.27335 46.729L0.20724 46.4558L0.15018 46.1849L0.1022 45.9161L0.06335 45.6493L0.03367 45.3844L0.01319 45.1212L0.00195 44.8597L0 44.5996L0.00737 44.3408L0.02411 44.0833L0.05025 43.8269L0.08583 43.5715L0.13089 43.3169L0.18548 43.063L0.24963 42.8098L0.32337 42.557L0.40594 42.3071L0.49653 42.0628L0.59518 41.8239L0.70195 41.5903L0.81686 41.3618L0.93996 41.1383L1.07129 40.9197L1.21088 40.7058L1.35878 40.4966L1.51502 40.2919L1.67964 40.0915L1.85269 39.8954L2.03421 39.7034L2.22422 39.5155L2.42278 39.3313L2.62993 39.151L2.84569 38.9742L3.07012 38.8009L3.30324 38.631L3.54511 38.4643L3.79576 38.3007L4.05523 38.1401L4.32356 37.9823L4.60078 37.8272L4.88695 37.6748L5.18209 37.5248L5.48629 37.3771L5.79949 37.2317L6.12179 37.0883L6.45329 36.9469L6.79389 36.8073L7.14369 36.6695L7.50279 36.5332L7.87119 36.3983L8.24899 36.2648L8.63609 36.1324L9.03259 36.0012L9.43859 35.8708L9.85399 35.7413L10.279 35.6125L10.7136 35.4842L11.1578 35.3563L11.6116 35.2288L12.0751 35.1014L12.5484 34.974L13.0314 34.8466L13.5242 34.719L14.0269 34.591L14.5395 34.4626L15.062 34.3336L15.5945 34.2039L16.1369 34.0733L16.6895 33.9418L17.2521 33.8091L17.8248 33.6753L18.4077 33.54L19.0008 33.4033L19.6042 33.265L20.2178 33.125L20.8418 32.9831L21.4761 32.8392L22.1208 32.6932L22.776 32.5449L26.364 31.7331L26.7393 31.6481L27.1026 31.5657L27.4542 31.4856L27.7945 31.4076L28.1238 31.3314L28.4423 31.2567L28.7505 31.1834L29.0486 31.1112L29.3369 31.0398L29.6158 30.969L29.8856 30.8986L30.1466 30.8283L30.3991 30.7579L30.6434 30.6871L30.88 30.6158L31.1089 30.5436L31.3307 30.4703L31.5456 30.3956L31.7539 30.3194L31.956 30.2414L32.1522 30.1613L32.3427 30.079L32.528 29.9941L32.7082 29.9064L32.8839 29.8157L33.0551 29.7217L33.2224 29.6243L33.386 29.523L33.5461 29.4178L33.7033 29.3084L33.8576 29.1945L34.0251 29.0633L34.1886 28.9272L34.3486 28.7856L34.5056 28.6383L34.66 28.4849L34.8122 28.3252L34.9626 28.1588L35.1118 27.9853L35.26 27.8044L35.4078 27.6159L35.5556 27.4193L35.7038 27.2144L35.8528 27.0008L36.0031 26.7782L36.1552 26.5463L36.3093 26.3047L36.4661 26.0531L36.6259 25.7912L36.7891 25.5187L36.9561 25.2351L37.1275 24.9403L37.3036 24.6338L37.4849 24.3154L37.6718 23.9846L37.8648 23.6413L38.0642 23.285L38.2705 22.9154L38.4841 22.5323L40.3317 19.2177M75.3903 52.9554L75.4051 53.3717L75.4156 53.7845L75.4218 54.1935L75.4237 54.5988L75.4215 55.0002L75.4151 55.3977L75.4047 55.791L75.3902 56.1801L75.3717 56.565L75.3493 56.9455L75.323 57.3214L75.2929 57.6927L75.2589 58.0594L75.2213 58.4212L75.1799 58.778L75.1349 59.1299L75.0863 59.4766L75.0341 59.8181L74.9784 60.1543L74.9193 60.485L74.8568 60.8102L74.7909 61.1297L74.7217 61.4434L74.6493 61.7513L74.5737 62.0533L74.4949 62.3492L74.413 62.6389L74.328 62.9223L74.2401 63.1993L74.1491 63.4699L74.0553 63.7339L73.9586 63.9911L73.859 64.2416L73.7567 64.4852L73.6517 64.7218L73.544 64.9512L73.4337 65.1735L73.3209 65.3884L73.2055 65.5959L73.0876 65.7959L72.9673 65.9883L72.8447 66.1729L72.7197 66.3497L72.5924 66.5185L72.4629 66.6793L72.3312 66.832L72.1974 66.9764L72.0615 67.1124L71.9236 67.24L71.7837 67.359L71.6419 67.4693L71.4981 67.5709L71.3526 67.6635L71.2052 67.7472L71.0561 67.8218L70.9053 67.8872L70.7529 67.9433L70.5988 67.9901L70.4433 68.0273L70.2862 68.0549L70.1277 68.0727L69.9678 68.0808L69.8065 68.079L69.6195 68.0726L69.4359 68.0564L69.2555 68.0302L69.0785 67.9944L68.9047 67.9489L68.7342 67.8939L68.5671 67.8294L68.4032 67.7557L68.2426 67.6728L68.0853 67.5808L67.9312 67.4799L67.7804 67.37L67.6329 67.2515L67.4886 67.1243L67.3475 66.9886L67.2097 66.8445L67.0751 66.6921L66.9437 66.5315L66.8156 66.3629L66.6907 66.1862L66.569 66.0018L66.4504 65.8095L66.3351 65.6097L66.223 65.4023L66.114 65.1875L66.0083 64.9655L65.9057 64.7362L65.8062 64.4999L65.71 64.2566L65.6169 64.0064L65.5269 63.7495L65.4401 63.486L65.3564 63.2159L65.2759 62.9395L65.1984 62.6567L65.1241 62.3678L65.0529 62.0728L64.9849 61.7718L64.9199 61.465L64.858 61.1524L64.7992 60.8342L64.7435 60.5105L64.6909 60.1814L64.6413 59.8469L64.5948 59.5073L64.5514 59.1626L64.511 58.813L64.4737 58.4585L64.4394 58.0992L64.4082 57.7354L64.38 57.367L64.3548 56.9942L64.3327 56.6171L64.3135 56.2358L64.2974 55.8504L64.2842 55.4611L64.2741 55.0679L64.267 54.671L64.2628 54.2705L64.2616 53.8664L64.2634 53.4589L64.2682 53.0482L64.2759 52.6342L64.2567 52.2119L64.2419 51.7925L64.2313 51.3763L64.225 50.9633L64.2229 50.5536L64.2249 50.1474L64.231 49.7449L64.2412 49.3461L64.2555 48.9511L64.2737 48.5602L64.2959 48.1734L64.3219 47.7909L64.3519 47.4128L64.3857 47.0393L64.4232 46.6704L64.4645 46.3063L64.5096 45.9471L64.5583 45.593L64.6106 45.2441L64.6665 44.9005L64.7259 44.5624L64.7889 44.2298L64.8553 43.9029L64.9251 43.5819L64.9984 43.2669L65.0749 42.958L65.1548 42.6553L65.2379 42.359L65.3243 42.0691L65.4138 41.7859L65.5065 41.5095L65.6023 41.24L65.7012 40.9774L65.803 40.7221L65.9079 40.474L66.0157 40.2333L66.1264 40.0002L66.2399 39.7747L66.3563 39.557L66.4754 39.3473L66.5973 39.1457L66.7219 38.9522L66.8491 38.7671L66.979 38.5905L67.1114 38.4224L67.2464 38.2631L67.3838 38.1126L67.5237 37.9711L67.6661 37.8387L67.8108 37.7156L67.9578 37.6018L68.1071 37.4975L68.2587 37.4029L68.4125 37.3181L68.5685 37.2431L68.7266 37.1782L68.8868 37.1234L69.0491 37.079L69.2133 37.0449L69.3795 37.0214L69.5477 37.0086L69.7177 37.0066L69.8896 37.0156L70.0635 37.0231L70.2348 37.0413L70.4037 37.0699L70.57 37.1089L70.7338 37.1582L70.895 37.2175L71.0536 37.2868L71.2097 37.366L71.3632 37.4548L71.5141 37.5532L71.6623 37.6611L71.8079 37.7782L71.9509 37.9045L72.0912 38.0398L72.2288 38.1841L72.3637 38.3371L72.4959 38.4987L72.6253 38.6688L72.7521 38.8473L72.876 39.034L72.9972 39.2288L73.1156 39.4316L73.2312 39.6422L73.344 39.8605L73.454 40.0864L73.5611 40.3197L73.6653 40.5603L73.7667 40.808L73.8652 41.0628L73.9608 41.3245L74.0535 41.5929L74.1432 41.868L74.23 42.1496L74.3138 42.4375L74.3947 42.7317L74.4725 43.0319L74.5474 43.3381L74.6192 43.6502L74.688 43.9679L74.7537 44.2912L74.8164 44.62L74.876 44.954L74.9325 45.2932L74.9859 45.6374L75.0362 45.9865L75.0833 46.3404L75.1273 46.6989L75.1681 47.0619L75.2058 47.4292L75.2402 47.8008L75.2714 48.1765L75.2994 48.5561L75.3242 48.9396L75.3457 49.3268L75.3639 49.7175L75.3789 50.1116L75.3905 50.5091L75.3988 50.9097L75.4039 51.3133L75.4055 51.7198L75.4038 52.1291L75.3987 52.541L75.3903 52.9554M48.5103 52.132L48.5251 51.7157L48.5356 51.303L48.5418 50.8939L48.5437 50.4886L48.5415 50.0872L48.5351 49.6898L48.5247 49.2964L48.5102 48.9073L48.4917 48.5224L48.4693 48.142L48.443 47.766L48.4129 47.3947L48.379 47.0281L48.3413 46.6663L48.2999 46.3094L48.2549 45.9575L48.2063 45.6108L48.1541 45.2693L48.0984 44.9331L48.0393 44.6024L47.9768 44.2772L47.9109 43.9577L47.8418 43.644L47.7693 43.3361L47.6937 43.0341L47.6149 42.7383L47.533 42.4486L47.448 42.1651L47.3601 41.8881L47.2691 41.6175L47.1753 41.3536L47.0786 41.0963L46.979 40.8458L46.8767 40.6022L46.7717 40.3656L46.6641 40.1362L46.5538 39.9139L46.4409 39.699L46.3255 39.4915L46.2076 39.2915L46.0873 39.0991L45.9647 38.9145L45.8397 38.7377L45.7124 38.5689L45.5829 38.4081L45.4512 38.2554L45.3174 38.111L45.1815 37.975L45.0436 37.8474L44.9037 37.7284L44.7618 37.6181L44.6181 37.5165L44.4725 37.4239L44.3252 37.3402L44.1761 37.2656L44.0253 37.2002L43.8729 37.1441L43.7188 37.0973L43.5633 37.0601L43.4062 37.0325L43.2477 37.0147L43.0878 37.0066L42.9265 37.0084L42.7395 37.0148L42.5559 37.031L42.3755 37.0572L42.1984 37.093L42.0247 37.1385L41.8542 37.1935L41.6871 37.258L41.5232 37.3317L41.3626 37.4146L41.2053 37.5066L41.0512 37.6076L40.9004 37.7174L40.7528 37.8359L40.6086 37.9631L40.4675 38.0988L40.3297 38.2429L40.1951 38.3953L40.0637 38.5559L39.9356 38.7245L39.8107 38.9012L39.6889 39.0856L39.5704 39.2779L39.4551 39.4777L39.343 39.6851L39.234 39.8999L39.1283 40.1219L39.0257 40.3512L38.9262 40.5875L38.83 40.8308L38.7369 41.081L38.6469 41.3379L38.5601 41.6014L38.4764 41.8715L38.3959 42.1479L38.3184 42.4307L38.2441 42.7196L38.1729 43.0146L38.1049 43.3156L38.0399 43.6224L37.978 43.935L37.9192 44.2532L37.8635 44.5769L37.8109 44.906L37.7613 45.2405L37.7148 45.5801L37.6714 45.9248L37.631 46.2744L37.5937 46.6289L37.5594 46.9882L37.5282 47.352L37.5 47.7204L37.4748 48.0932L37.4527 48.4703L37.4335 48.8516L37.4174 49.237L37.4042 49.6263L37.3941 50.0195L37.3869 50.4164L37.3828 50.8169L37.3816 51.221L37.3834 51.6285L37.3882 52.0392L37.3959 52.4532L37.3767 52.8755L37.3619 53.2949L37.3513 53.7111L37.345 54.1241L37.3429 54.5338L37.3449 54.94L37.351 55.3425L37.3612 55.7413L37.3755 56.1363L37.3937 56.5272L37.4158 56.914L37.4419 57.2965L37.4719 57.6745L37.5057 58.0481L37.5432 58.417L37.5845 58.7811L37.6296 59.1403L37.6782 59.4944L37.7306 59.8433L37.7865 60.1869L37.8459 60.525L37.9089 60.8576L37.9753 61.1844L38.0451 61.5055L38.1183 61.8205L38.1949 62.1294L38.2748 62.4321L38.3579 62.7284L38.4443 63.0183L38.5338 63.3015L38.6265 63.5779L38.7223 63.8474L38.8212 64.11L38.923 64.3653L39.0279 64.6134L39.1357 64.8541L39.2463 65.0872L39.3599 65.3127L39.4763 65.5303L39.5954 65.7401L39.7173 65.9417L39.8419 66.1351L39.9691 66.3203L40.099 66.4969L40.2314 66.665L40.3663 66.8243L40.5038 66.9748L40.6437 67.1163L40.7861 67.2487L40.9308 67.3718L41.0778 67.4856L41.2271 67.5899L41.3787 67.6845L41.5325 67.7693L41.6885 67.8443L41.8466 67.9092L42.0068 67.964L42.169 68.0084L42.3333 68.0425L42.4995 68.066L42.6677 68.0788L42.8377 68.0808L43.0096 68.0718L43.1835 68.0643L43.3548 68.0461L43.5237 68.0175L43.69 67.9785L43.8537 67.9292L44.015 67.8699L44.1736 67.8006L44.3297 67.7214L44.4832 67.6326L44.6341 67.5342L44.7823 67.4263L44.9279 67.3092L45.0709 67.1829L45.2112 67.0476L45.3488 66.9033L45.4837 66.7504L45.6159 66.5887L45.7453 66.4186L45.872 66.2401L45.996 66.0534L46.1172 65.8586L46.2356 65.6558L46.3512 65.4452L46.464 65.2269L46.574 65.0011L46.6811 64.7678L46.7853 64.5272L46.8867 64.2794L46.9852 64.0246L47.0808 63.7629L47.1735 63.4945L47.2632 63.2194L47.35 62.9379L47.4338 62.6499L47.5147 62.3558L47.5925 62.0555L47.6674 61.7493L47.7392 61.4372L47.808 61.1195L47.8737 60.7962L47.9364 60.4675L47.996 60.1334L48.0525 59.7943L48.1059 59.45L48.1562 59.1009L48.2033 58.747L48.2473 58.3885L48.2881 58.0256L48.3258 57.6582L48.3602 57.2866L48.3914 56.9109L48.4194 56.5313L48.4442 56.1478L48.4657 55.7607L48.4839 55.37L48.4989 54.9758L48.5105 54.5784L48.5188 54.1778L48.5239 53.7741L48.5255 53.3676L48.5238 52.9583L48.5187 52.5464L48.5103 52.132" sodipodi:nodetypes="ccccccccccccccccccccccccccccccccccccccccccccccccccccccccccccccccccccccccccccccccccccccccccccccccccccccccccccccccccccccccccccccccccccccccccccccccccccccccccccccccccccccccccccccccccccccccccccccccccccccccccccccccccccccccccccccccccccccccccccccccccccccccccccccccccccccccccccccccccccccccccccccccccccccccccccccccccccccccccccccccccccccccccccccccccccccccccccccccccccccccccccccccccccccccccccccccccccccccccccccccccccccccccccccccccccccccccccccccccccccccccccccccccccccccccccccccccccccccccccccccccccccccccccccccccccccccccccccccccccccccccccccccccccccccccccccccccccccccccccccccccccccccccccccccccccccccccccccccccccccccccccccccccccccccccccccccccccccccccccccccccccccccccccccccccccccccccccccccccccccccccccccccccccccccccccccccccccccccccccccccccccccccccccccccccccccccccccccccccccccccccccccccccccccccccccccccccccccccccccccccccccccccccccccccccccccccccccccccccccccccccccccccccccccccccccccccccccccccccccccccccccccccccccccccccccccccccccccccccccccccccccccccccccccccccccccccccccccccccccccccccccccccccccccccccccccccccccccccccccccccccccccccccccccccccccccccccccccccccccccccccccccccccccccccccccccccccccccccccccccccccccccccccccccccccccccccccccccccccccccccccccccccccccccccccccccccccccccccccccccccccccccccccccccccccccccccccccccccccccccccccccccccccccccccccccccccccccccccccccccccccccccccccccccccccccccccccccccccccccccccccccccccccccccccccccccccccccccccccccccccccccccccccccccccccccccccccccccccccccccccccccccccccccccccccccccccccccccccccccccccccccccccccccccccccccccccccccccccccccccccccccccccccc"/>
</svg>
