<?xml version="1.0" standalone="no"?>
<!DOCTYPE svg PUBLIC "-//W3C//DTD SVG 20010904//EN" "http://www.w3.org/TR/2001/REC-SVG-20010904/DTD/svg10.dtd">
<!-- Created using Krita: https://krita.org -->
<svg xmlns="http://www.w3.org/2000/svg" 
    xmlns:xlink="http://www.w3.org/1999/xlink"
    xmlns:krita="http://krita.org/namespaces/svg/krita"
    xmlns:sodipodi="http://sodipodi.sourceforge.net/DTD/sodipodi-0.dtd"
    width="240pt"
    height="240pt"
    viewBox="0 0 240 240">
<defs/>
<g id="group1" transform="matrix(1.38121567291378 0 0 1.38129502619083 126.54 125.58)" fill="none">
  <path id="shape01" transform="matrix(1.17314797547299 0 0 1.17314797547299 40.8255495464601 52.5854223375154)" fill="#666666" fill-rule="evenodd" stroke="#4c4c4c" stroke-width="1.2" stroke-linecap="square" stroke-linejoin="bevel" d="M0 19.2212C5.70826 -10.323 29.5032 2.49245 30 4.37117C28.5063 11.4186 26.3813 21.4832 0.584992 19.9712L0 19.2212" sodipodi:nodetypes="cccc"/>
  <path id="shape011" transform="matrix(-1.17314797547299 0 0 1.17314797547299 35.1944392641897 52.5851318876753)" fill="#666666" stroke="#4c4c4c" stroke-width="1.2" stroke-linecap="square" stroke-linejoin="bevel" d="M0 19.2212C5.70826 -10.323 29.5032 2.49245 30 4.37117C28.5063 11.4186 26.3813 21.4832 0.584992 19.9712L0 19.2212" sodipodi:nodetypes="cccc"/>
  <path id="shape11" transform="matrix(1.17314797547299 0 0 1.17314797547299 32.8012173942248 50.6738670722762)" fill="#595959" fill-rule="evenodd" stroke="#4c4c4c" stroke-width="1.2" stroke-linecap="square" stroke-linejoin="bevel" d="M0 0L8.88 0L8.88 22.8011C5.96792 24.3161 3.01075 24.4057 0 22.8011Z" sodipodi:nodetypes="ccccc"/>
  <path id="shape2" transform="translate(4.22329440532491, 0.00338629393948509)" fill="#595959" fill-rule="evenodd" stroke-opacity="0" stroke="#000000" stroke-width="0" stroke-linecap="square" stroke-linejoin="bevel" d="M67.5737 26.0391L67.5617 25.3571L67.5277 24.6781L67.4717 24.0041L67.3937 23.3351L67.2937 22.6711L67.1717 22.0121L67.0287 21.3591L66.8657 20.7111L66.6807 20.0691L66.4767 19.4331L66.2517 18.803L66.0067 18.1797L65.7427 17.5631L65.4597 16.9534L65.1577 16.3508L64.8367 15.7556L64.4967 15.1679L64.1397 14.5879L63.7637 14.016L63.3707 13.4522L62.9607 12.8968L62.5327 12.3501L62.0887 11.8121L61.6287 11.2833L61.1517 10.7637L60.6587 10.2535L60.1507 9.7531L59.6267 9.2625L59.0887 8.7821L58.5347 8.312L57.9667 7.8525L57.3847 7.4037L56.7887 6.9659L56.1787 6.5393L55.5547 6.1241L54.9187 5.7205L54.2687 5.3288L53.6077 4.9491L52.9327 4.5817L52.2467 4.2267L51.5487 3.8845L50.8397 3.5551L50.1187 3.2389L49.3877 2.936L48.6457 2.6466L47.8927 2.3711L47.1297 2.1095L46.3577 1.8621L45.5757 1.6291L44.7847 1.4107L43.9847 1.2071L43.1757 1.0187L42.3587 0.8454L41.5337 0.6877L40.7007 0.5456L39.8597 0.4195L39.0117 0.3095L38.1567 0.2158L37.2957 0.1387L36.4267 0.0783L35.5527 0.0349L34.6727 0.0087L33.7867 0L32.9007 0.0087L32.0207 0.0349L31.1467 0.0783L30.2777 0.1387L29.4167 0.2158L28.5617 0.3095L27.7137 0.4195L26.8727 0.5456L26.0397 0.6877L25.2147 0.8454L24.3977 1.0187L23.5887 1.2071L22.7887 1.4107L21.9977 1.6291L21.2157 1.8621L20.4437 2.1095L19.6807 2.3711L18.9277 2.6466L18.1857 2.936L17.4547 3.2389L16.7337 3.5551L16.0247 3.8845L15.3267 4.2267L14.6407 4.5817L13.9657 4.9491L13.3042 5.3288L12.6549 5.7205L12.0184 6.1241L11.395 6.5393L10.7851 6.9659L10.1888 7.4037L9.6065 7.8525L9.0385 8.312L8.485 8.7821L7.9462 9.2625L7.4226 9.7531L6.9143 10.2535L6.4216 10.7637L5.9449 11.2833L5.4843 11.8121L5.0402 12.3501L4.6129 12.8968L4.2026 13.4522L3.8096 14.016L3.4342 14.5879L3.0766 15.1679L2.7372 15.7556L2.4161 16.3508L2.1138 16.9534L1.8305 17.5631L1.5664 18.1797L1.3218 18.803L1.097 19.4331L0.8924 20.0691L0.7081 20.7111L0.5444 21.3591L0.4016 22.0121L0.2801 22.6711L0.18 23.3351L0.1017 24.0041L0.0454 24.6781L0.0114 25.3571L0 26.0391L0.0114 26.7221L0.0454 27.4001L0.1017 28.0741L0.18 28.7431L0.2801 29.4081L0.4016 30.0661L0.5444 30.7201L0.7081 31.3681L0.8924 32.0101L1.097 32.6461L1.3218 33.2761L1.5664 33.8991L1.8305 34.5161L2.1138 35.1251L2.4161 35.7281L2.7372 36.3231L3.0766 36.9111L3.4342 37.4911L3.8096 38.0631L4.2026 38.6271L4.6129 39.1821L5.0402 39.7291L5.4843 40.2671L5.9449 40.7961L6.4216 41.3151L6.9143 41.8251L7.4226 42.3261L7.9462 42.8161L8.485 43.2971L9.0385 43.7671L9.6065 44.2261L10.1888 44.6751L10.7851 45.1131L11.395 45.5391L12.0184 45.9551L12.6549 46.3581L13.3042 46.7501L13.9657 47.1301L14.6407 47.4971L15.3267 47.8521L16.0247 48.1941L16.7337 48.5241L17.4547 48.8401L18.1857 49.1431L18.9277 49.4321L19.6807 49.7081L20.4437 49.9691L21.2157 50.2171L21.9977 50.4501L22.7887 50.6681L23.5887 50.8721L24.3977 51.0601L25.2147 51.2331L26.0397 51.3911L26.8727 51.5331L27.7137 51.6591L28.5617 51.7691L29.4167 51.8631L30.2777 51.9401L31.1467 52.0001L32.0207 52.0441L32.9007 52.0701L33.7867 52.0791L34.6727 52.0701L35.5527 52.0441L36.4267 52.0001L37.2957 51.9401L38.1567 51.8631L39.0117 51.7691L39.8597 51.6591L40.7007 51.5331L41.5337 51.3911L42.3587 51.2331L43.1757 51.0601L43.9847 50.8721L44.7847 50.6681L45.5757 50.4501L46.3577 50.2171L47.1297 49.9691L47.8927 49.7081L48.6457 49.4321L49.3877 49.1431L50.1187 48.8401L50.8397 48.5241L51.5487 48.1941L52.2467 47.8521L52.9327 47.4971L53.6077 47.1301L54.2687 46.7501L54.9187 46.3581L55.5547 45.9551L56.1787 45.5391L56.7887 45.1131L57.3847 44.6751L57.9667 44.2261L58.5347 43.7671L59.0887 43.2971L59.6267 42.8161L60.1507 42.3261L60.6587 41.8251L61.1517 41.3151L61.6287 40.7961L62.0887 40.2671L62.5327 39.7291L62.9607 39.1821L63.3707 38.6271L63.7637 38.0631L64.1397 37.4911L64.4967 36.9111L64.8367 36.3231L65.1577 35.7281L65.4597 35.1251L65.7427 34.5161L66.0067 33.8991L66.2517 33.2761L66.4767 32.6461L66.6807 32.0101L66.8657 31.3681L67.0287 30.7201L67.1717 30.0661L67.2937 29.4081L67.3937 28.7431L67.4717 28.0741L67.5277 27.4001L67.5617 26.7221L67.5737 26.0391M40.8257 20.1221L41.3117 20.1881L41.7497 20.3721L42.1197 20.6581L42.4057 21.0291L42.5907 21.4661L42.6557 21.9521L42.6557 28.7101L42.5907 29.1961L42.4057 29.6331L42.1197 30.0041L41.7497 30.2901L41.3117 30.4741L40.8257 30.5401L40.3387 30.4741L39.9017 30.2901L39.5317 30.0041L39.2457 29.6331L39.0607 29.1961L38.9957 28.7101L38.9957 21.9521L39.0607 21.4661L39.2457 21.0291L39.5317 20.6581L39.9017 20.3721L40.3387 20.1881L40.8257 20.1221M26.7477 20.1221L27.2347 20.1881L27.6717 20.3721L28.0417 20.6581L28.3277 21.0291L28.5127 21.4661L28.5777 21.9521L28.5777 28.7101L28.5127 29.1961L28.3277 29.6331L28.0417 30.0041L27.6717 30.2901L27.2347 30.4741L26.7477 30.5401L26.2617 30.4741L25.8237 30.2901L25.4537 30.0041L25.1677 29.6331L24.9827 29.1961L24.9177 28.7101L24.9177 21.9521L24.9827 21.4661L25.1677 21.0291L25.4537 20.6581L25.8237 20.3721L26.2617 20.1881L26.7477 20.1221" sodipodi:nodetypes="ccccccccccccccccccccccccccccccccccccccccccccccccccccccccccccccccccccccccccccccccccccccccccccccccccccccccccccccccccccccccccccccccccccccccccccccccccccccccccccccccccccccccccccccccccccccccccccccccccccccccccccccccccccccccccccccccccccccccccccccccccccccccccccccccccccccccccccccccccccccccccccccccccccccccccccccccccc"/>
  <ellipse id="shape21" transform="matrix(1.17314797547299 0 0 1.17314797547299 4.22333271170274 0)" rx="28.8" ry="22.1962504631531" cx="28.8" cy="22.1962504631531" fill="none" stroke="#4c4c4c" stroke-width="1.2" stroke-linecap="square" stroke-linejoin="bevel"/>
  <path id="shape3" transform="translate(12.6699944053249, 7.57898629393949)" fill="#737373" fill-rule="evenodd" stroke-opacity="0" stroke="#000000" stroke-width="0" stroke-linecap="square" stroke-linejoin="bevel" d="M50.68 18.9385L50.671 18.4425L50.646 17.9495L50.604 17.4585L50.545 16.9725L50.47 16.4895L50.379 16.0095L50.272 15.5345L50.149 15.0635L50.011 14.5965L49.857 14.1335L49.689 13.6755L49.505 13.2225L49.307 12.7735L49.095 12.3305L48.868 11.8925L48.627 11.4593L48.373 11.0319L48.104 10.6101L47.823 10.1941L47.528 9.784L47.22 9.3801L46.9 8.9824L46.567 8.5912L46.221 8.2065L45.864 7.8286L45.494 7.4576L45.113 7.0936L44.72 6.7368L44.316 6.3874L43.901 6.0455L43.475 5.7113L43.038 5.3849L42.591 5.0664L42.134 4.7562L41.666 4.4542L41.189 4.1607L40.702 3.8757L40.205 3.5996L39.7 3.3323L39.185 3.0742L38.662 2.8252L38.13 2.5857L37.589 2.3557L37.04 2.1354L36.484 1.925L35.92 1.7245L35.348 1.5342L34.768 1.3543L34.182 1.1848L33.589 1.026L32.989 0.878L32.382 0.7409L31.769 0.6149L31.15 0.5002L30.525 0.3968L29.895 0.3051L29.259 0.2251L28.618 0.1569L27.971 0.1009L27.32 0.0569L26.665 0.0254L26.004 0.0064L25.34 0L24.676 0.0064L24.015 0.0254L23.36 0.0569L22.709 0.1009L22.062 0.1569L21.421 0.2251L20.785 0.3051L20.155 0.3968L19.53 0.5002L18.911 0.6149L18.298 0.7409L17.691 0.878L17.091 1.026L16.498 1.1848L15.912 1.3543L15.332 1.5342L14.76 1.7245L14.196 1.925L13.64 2.1354L13.091 2.3557L12.55 2.5857L12.018 2.8252L11.495 3.0742L10.98 3.3323L10.475 3.5996L9.978 3.8757L9.491 4.1607L9.014 4.4542L8.546 4.7562L8.089 5.0664L7.642 5.3849L7.205 5.7113L6.779 6.0455L6.364 6.3874L5.96 6.7368L5.567 7.0936L5.1857 7.4576L4.8162 7.8286L4.4586 8.2065L4.1132 8.5912L3.7802 8.9824L3.4597 9.3801L3.1519 9.784L2.8572 10.1941L2.5756 10.6101L2.3074 11.0319L2.0528 11.4593L1.8121 11.8925L1.5853 12.3305L1.3728 12.7735L1.1748 13.2225L0.9913 13.6755L0.8228 14.1335L0.6693 14.5965L0.531 15.0635L0.4083 15.5345L0.3012 16.0095L0.21 16.4895L0.135 16.9725L0.0762 17.4585L0.034 17.9495L0.0085 18.4425L0 18.9385L0.0085 19.4355L0.034 19.9285L0.0762 20.4195L0.135 20.9055L0.21 21.3885L0.3012 21.8675L0.4083 22.3435L0.531 22.8145L0.6693 23.2815L0.8228 23.7445L0.9913 24.2025L1.1748 24.6555L1.3728 25.1035L1.5853 25.5475L1.8121 25.9855L2.0528 26.4185L2.3074 26.8465L2.5756 27.2675L2.8572 27.6835L3.1519 28.0935L3.4597 28.4975L3.7802 28.8955L4.1132 29.2865L4.4586 29.6715L4.8162 30.0495L5.1857 30.4205L5.567 30.7845L5.96 31.1415L6.364 31.4905L6.779 31.8325L7.205 32.1665L7.642 32.4935L8.089 32.8115L8.546 33.1215L9.014 33.4235L9.491 33.7175L9.978 34.0025L10.475 34.2785L10.98 34.5455L11.495 34.8035L12.018 35.0525L12.55 35.2925L13.091 35.5225L13.64 35.7425L14.196 35.9535L14.76 36.1535L15.332 36.3435L15.912 36.5235L16.498 36.6935L17.091 36.8515L17.691 36.9995L18.298 37.1375L18.911 37.2635L19.53 37.3775L20.155 37.4815L20.785 37.5725L21.421 37.6525L22.062 37.7215L22.709 37.7775L23.36 37.8215L24.015 37.8525L24.676 37.8715L25.34 37.8775L26.004 37.8715L26.665 37.8525L27.32 37.8215L27.971 37.7775L28.618 37.7215L29.259 37.6525L29.895 37.5725L30.525 37.4815L31.15 37.3775L31.769 37.2635L32.382 37.1375L32.989 36.9995L33.589 36.8515L34.182 36.6935L34.768 36.5235L35.348 36.3435L35.92 36.1535L36.484 35.9535L37.04 35.7425L37.589 35.5225L38.13 35.2925L38.662 35.0525L39.185 34.8035L39.7 34.5455L40.205 34.2785L40.702 34.0025L41.189 33.7175L41.666 33.4235L42.134 33.1215L42.591 32.8115L43.038 32.4935L43.475 32.1665L43.901 31.8325L44.316 31.4905L44.72 31.1415L45.113 30.7845L45.494 30.4205L45.864 30.0495L46.221 29.6715L46.567 29.2865L46.9 28.8955L47.22 28.4975L47.528 28.0935L47.823 27.6835L48.104 27.2675L48.373 26.8465L48.627 26.4185L48.868 25.9855L49.095 25.5475L49.307 25.1035L49.505 24.6555L49.689 24.2025L49.857 23.7445L50.011 23.2815L50.149 22.8145L50.272 22.3435L50.379 21.8675L50.47 21.3885L50.545 20.9055L50.604 20.4195L50.646 19.9285L50.671 19.4355L50.68 18.9385M32.379 12.5505L32.865 12.6165L33.303 12.8005L33.673 13.0865L33.959 13.4575L34.144 13.8945L34.209 14.3805L34.209 21.1385L34.144 21.6245L33.959 22.0615L33.673 22.4325L33.303 22.7185L32.865 22.9025L32.379 22.9685L31.892 22.9025L31.455 22.7185L31.085 22.4325L30.799 22.0615L30.614 21.6245L30.549 21.1385L30.549 14.3805L30.614 13.8945L30.799 13.4575L31.085 13.0865L31.455 12.8005L31.892 12.6165L32.379 12.5505M18.301 12.5505L18.788 12.6165L19.225 12.8005L19.595 13.0865L19.881 13.4575L20.066 13.8945L20.131 14.3805L20.131 21.1385L20.066 21.6245L19.881 22.0615L19.595 22.4325L19.225 22.7185L18.788 22.9025L18.301 22.9685L17.815 22.9025L17.377 22.7185L17.007 22.4325L16.721 22.0615L16.536 21.6245L16.471 21.1385L16.471 14.3805L16.536 13.8945L16.721 13.4575L17.007 13.0865L17.377 12.8005L17.815 12.6165L18.301 12.5505" sodipodi:nodetypes="ccccccccccccccccccccccccccccccccccccccccccccccccccccccccccccccccccccccccccccccccccccccccccccccccccccccccccccccccccccccccccccccccccccccccccccccccccccccccccccccccccccccccccccccccccccccccccccccccccccccccccccccccccccccccccccccccccccccccccccccccccccccccccccccccccccccccccccccccccccccccccccccccccccccccccccccccccc"/>
  <ellipse id="shape02" transform="matrix(1.17314797547299 0 0 1.17314797547299 12.6699981351083 7.58047883121387)" rx="21.6" ry="16.1437498582306" cx="21.6" cy="16.1437498582306" fill="none" stroke="#4c4c4c" stroke-width="1.2" stroke-linecap="square" stroke-linejoin="bevel"/>
  <path id="shape4" transform="translate(22.5239944053249, 14.5764893564404)" fill="#8c8c8c" fill-rule="evenodd" stroke-opacity="0" stroke="#000000" stroke-width="0" stroke-linecap="square" stroke-linejoin="bevel" d="M30.972 11.6229L30.966 11.3179L30.951 11.0159L30.925 10.7149L30.889 10.4159L30.843 10.1199L30.787 9.8259L30.722 9.5339L30.647 9.2449L30.563 8.9579L30.469 8.6739L30.366 8.3929L30.254 8.1149L30.133 7.8399L30.003 7.5669L29.864 7.2979L29.717 7.0329L29.561 6.7699L29.398 6.5119L29.226 6.2559L29.045 6.0049L28.857 5.7569L28.661 5.5129L28.458 5.2729L28.247 5.0369L28.028 4.8049L27.803 4.5768L27.57 4.3534L27.33 4.1345L27.083 3.92L26.829 3.7102L26.569 3.5051L26.302 3.3048L26.028 3.1094L25.749 2.9189L25.463 2.7336L25.171 2.5535L24.874 2.3786L24.57 2.2091L24.261 2.0451L23.947 1.8867L23.627 1.7339L23.302 1.5869L22.972 1.4458L22.636 1.3106L22.296 1.1814L21.951 1.0584L21.602 0.9416L21.248 0.8312L20.889 0.7272L20.527 0.6297L20.16 0.5389L19.789 0.4547L19.415 0.3774L19.037 0.307L18.655 0.2436L18.27 0.1873L17.881 0.1382L17.489 0.0964L17.094 0.0619L16.696 0.035L16.295 0.0156L15.892 0.0039L15.486 0L15.08 0.0039L14.677 0.0156L14.276 0.035L13.878 0.0619L13.483 0.0964L13.091 0.1382L12.702 0.1873L12.317 0.2436L11.935 0.307L11.557 0.3774L11.183 0.4547L10.812 0.5389L10.445 0.6297L10.083 0.7272L9.724 0.8312L9.37 0.9416L9.021 1.0584L8.676 1.1814L8.336 1.3106L8 1.4458L7.67 1.5869L7.345 1.7339L7.025 1.8867L6.711 2.0451L6.402 2.2091L6.098 2.3786L5.801 2.5535L5.509 2.7336L5.223 2.9189L4.944 3.1094L4.67 3.3048L4.403 3.5051L4.143 3.7102L3.889 3.92L3.642 4.1345L3.402 4.3534L3.169 4.5768L2.944 4.8049L2.725 5.0369L2.514 5.2729L2.311 5.5129L2.115 5.7569L1.927 6.0049L1.746 6.2559L1.574 6.5119L1.411 6.7699L1.255 7.0329L1.108 7.2979L0.969 7.5669L0.839 7.8399L0.718 8.1149L0.606 8.3929L0.503 8.6739L0.409 8.9579L0.325 9.2449L0.25 9.5339L0.185 9.8259L0.129 10.1199L0.083 10.4159L0.047 10.7149L0.021 11.0159L0.006 11.3179L0 11.6229L0.006 11.9279L0.021 12.2309L0.047 12.5309L0.083 12.8299L0.129 13.1269L0.185 13.4209L0.25 13.7119L0.325 14.0019L0.409 14.2879L0.503 14.5719L0.606 14.8529L0.718 15.1309L0.839 15.4069L0.969 15.6789L1.108 15.9479L1.255 16.2129L1.411 16.4759L1.574 16.7349L1.746 16.9899L1.927 17.2419L2.115 17.4889L2.311 17.7329L2.514 17.9739L2.725 18.2099L2.944 18.4419L3.169 18.6689L3.402 18.8929L3.642 19.1119L3.889 19.3259L4.143 19.5359L4.403 19.7409L4.67 19.9409L4.944 20.1369L5.223 20.3269L5.509 20.5119L5.801 20.6929L6.098 20.8669L6.402 21.0369L6.711 21.2009L7.025 21.3589L7.345 21.5119L7.67 21.6589L8 21.7999L8.336 21.9359L8.676 22.0649L9.021 22.1879L9.37 22.3039L9.724 22.4149L10.083 22.5189L10.445 22.6159L10.812 22.7069L11.183 22.7909L11.557 22.8689L11.935 22.9389L12.317 23.0019L12.702 23.0589L13.091 23.1079L13.483 23.1499L13.878 23.1839L14.276 23.2109L14.677 23.2299L15.08 23.2419L15.486 23.2459L15.892 23.2419L16.295 23.2299L16.696 23.2109L17.094 23.1839L17.489 23.1499L17.881 23.1079L18.27 23.0589L18.655 23.0019L19.037 22.9389L19.415 22.8689L19.789 22.7909L20.16 22.7069L20.527 22.6159L20.889 22.5189L21.248 22.4149L21.602 22.3039L21.951 22.1879L22.296 22.0649L22.636 21.9359L22.972 21.7999L23.302 21.6589L23.627 21.5119L23.947 21.3589L24.261 21.2009L24.57 21.0369L24.874 20.8669L25.171 20.6929L25.463 20.5119L25.749 20.3269L26.028 20.1369L26.302 19.9409L26.569 19.7409L26.829 19.5359L27.083 19.3259L27.33 19.1119L27.57 18.8929L27.803 18.6689L28.028 18.4419L28.247 18.2099L28.458 17.9739L28.661 17.7329L28.857 17.4889L29.045 17.2419L29.226 16.9899L29.398 16.7349L29.561 16.4759L29.717 16.2129L29.864 15.9479L30.003 15.6789L30.133 15.4069L30.254 15.1309L30.366 14.8529L30.469 14.5719L30.563 14.2879L30.647 14.0019L30.722 13.7119L30.787 13.4209L30.843 13.1269L30.889 12.8299L30.925 12.5309L30.951 12.2309L30.966 11.9279L30.972 11.6229M22.525 5.3669L23.011 5.4329L23.449 5.6169L23.819 5.9029L24.105 6.2739L24.29 6.7109L24.355 7.1969L24.355 13.9549L24.29 14.4409L24.105 14.8779L23.819 15.2489L23.449 15.5349L23.011 15.7189L22.525 15.7849L22.038 15.7189L21.601 15.5349L21.231 15.2489L20.945 14.8779L20.76 14.4409L20.695 13.9549L20.695 7.1969L20.76 6.7109L20.945 6.2739L21.231 5.9029L21.601 5.6169L22.038 5.4329L22.525 5.3669M8.447 5.3669L8.934 5.4329L9.371 5.6169L9.741 5.9029L10.027 6.2739L10.212 6.7109L10.277 7.1969L10.277 13.9549L10.212 14.4409L10.027 14.8779L9.741 15.2489L9.371 15.5349L8.934 15.7189L8.447 15.7849L7.961 15.7189L7.523 15.5349L7.153 15.2489L6.867 14.8779L6.682 14.4409L6.617 13.9549L6.617 7.1969L6.682 6.7109L6.867 6.2739L7.153 5.9029L7.523 5.6169L7.961 5.4329L8.447 5.3669" sodipodi:nodetypes="ccccccccccccccccccccccccccccccccccccccccccccccccccccccccccccccccccccccccccccccccccccccccccccccccccccccccccccccccccccccccccccccccccccccccccccccccccccccccccccccccccccccccccccccccccccccccccccccccccccccccccccccccccccccccccccccccccccccccccccccccccccccccccccccccccccccccccccccccccccccccccccccccccccccccccccccccccc"/>
  <ellipse id="shape03" transform="matrix(1.17314797547299 0 0 1.17314797547299 22.5244411290814 14.7565212593831)" rx="13.2" ry="9.90750125095705" cx="13.2" cy="9.90750125095705" fill="none" stroke="#4c4c4c" stroke-width="1.2" stroke-linecap="square" stroke-linejoin="bevel"/>
 </g><g id="group0" transform="matrix(1.3876996564914 0 0 1.38765260192498 5.24000098896893 5.19499999999983)" fill="none">
  <path id="shape0" transform="translate(1.65223667940529, 1.24675533283569)" fill="#595959" fill-rule="evenodd" stroke-opacity="0" stroke="#000000" stroke-width="0" stroke-linecap="square" stroke-linejoin="bevel" d="M34.9327 0.2252L27.7367 1.7245L20.6897 4.722L13.4185 9.6703L8.5463 14.3923L4.647 20.24L1.9487 26.686L0 33.059L0.2242 40.93L0.5245 46.777L3.3739 53.598L8.3211 58.845L13.6437 61.844L27.2147 62.256L27.1837 61.927L27.1527 61.508L27.1297 61.071L27.1137 60.616L27.1167 60.222L27.1227 59.837L27.1337 59.461L27.1487 59.094L27.1687 58.736L27.1917 58.389L27.2197 58.051L27.2507 57.725L27.2867 57.41L27.3257 57.106L27.3697 56.814L27.4167 56.535L27.4687 56.268L27.5237 56.015L27.5817 55.775L27.6447 55.549L27.7107 55.337L27.7797 55.14L27.8527 54.958L27.9297 54.792L28.0097 54.641L28.0927 54.507L28.1797 54.39L28.2687 54.289L28.3627 54.206L28.4587 54.141L28.5577 54.095L28.8707 54.024L29.2187 53.991L29.5677 54.003L29.8857 54.069L30.1387 54.198L30.2567 54.302L30.3687 54.422L30.4747 54.557L30.5757 54.707L30.6717 54.871L30.7617 55.05L30.8457 55.241L30.9247 55.445L30.9997 55.662L31.0687 55.889L31.1327 56.128L31.1927 56.377L31.2467 56.635L31.2967 56.903L31.3427 57.179L31.3837 57.464L31.4197 57.755L31.4527 58.054L31.4807 58.358L31.5047 58.669L31.5247 58.984L31.5407 59.304L31.5537 59.627L31.5627 59.954L31.5677 60.284L31.5697 60.616L31.5647 60.885L31.5537 61.158L31.5347 61.435L31.5087 61.715L31.4767 61.997L31.4387 62.279L31.4227 62.384L38.3057 62.594L44.5357 62.35L44.5247 62.279L44.4867 61.997L44.4547 61.715L44.4287 61.435L44.4097 61.158L44.3987 60.885L44.3937 60.616L44.3957 60.284L44.4007 59.954L44.4097 59.627L44.4227 59.304L44.4387 58.984L44.4587 58.669L44.4827 58.358L44.5107 58.054L44.5437 57.755L44.5797 57.464L44.6207 57.179L44.6667 56.903L44.7167 56.635L44.7707 56.377L44.8307 56.128L44.8947 55.889L44.9637 55.662L45.0387 55.445L45.1177 55.241L45.2017 55.05L45.2917 54.871L45.3877 54.707L45.4887 54.557L45.5947 54.422L45.7067 54.302L45.8247 54.198L46.0777 54.069L46.3957 54.003L46.7447 53.991L47.0927 54.024L47.4057 54.095L47.5047 54.141L47.6007 54.206L47.6947 54.289L47.7837 54.39L47.8707 54.507L47.9537 54.641L48.0337 54.792L48.1107 54.958L48.1837 55.14L48.2527 55.337L48.3187 55.549L48.3817 55.775L48.4397 56.015L48.4947 56.268L48.5467 56.535L48.5937 56.814L48.6377 57.106L48.6767 57.41L48.7127 57.725L48.7437 58.051L48.7717 58.389L48.7947 58.736L48.8147 59.094L48.8297 59.461L48.8407 59.837L48.8467 60.222L48.8497 60.616L48.8337 61.071L48.8107 61.508L48.7797 61.927L48.7557 62.185L61.3197 61.695L70.0157 56.671L74.8877 47.902L76.0867 36.957L72.6387 23.613L66.9417 14.3923L60.1947 7.7957L49.0257 1.8736L41.1547 0L34.9327 0.2252M38.1477 4.0762L37.6487 4.0824L37.1517 4.1011L36.6597 4.132L36.1697 4.175L35.6847 4.23L35.2027 4.2967L34.7247 4.3751L34.2507 4.4649L33.7817 4.5661L33.3157 4.6785L32.8557 4.8019L32.3997 4.9362L31.9487 5.0812L31.5027 5.2368L31.0627 5.4027L30.6267 5.579L30.1977 5.7654L29.7727 5.9617L29.3547 6.1678L28.9427 6.3836L28.5367 6.6089L28.1367 6.8436L27.7437 7.0874L27.3567 7.3403L26.9767 7.602L26.6037 7.8725L26.2377 8.1516L25.8787 8.4392L25.5277 8.735L25.1837 9.0389L24.8477 9.3508L24.5197 9.6705L24.1997 9.9979L23.8877 10.3329L23.5837 10.6751L23.2887 11.0246L23.0017 11.3812L22.7247 11.7447L22.4557 12.1149L22.1957 12.4917L21.9457 12.8749L21.7047 13.2645L21.4737 13.6602L21.2527 14.0619L21.0407 14.4694L20.8387 14.8826L20.6477 15.3014L20.4667 15.7255L20.2967 16.1548L20.1367 16.5893L19.9877 17.0286L19.8497 17.4727L19.7237 17.9214L19.6077 18.375L19.5047 18.832L19.4117 19.294L19.3317 19.759L19.2627 20.229L19.2067 20.702L19.1627 21.179L19.1307 21.659L19.1117 22.143L19.1057 22.629L19.1117 23.116L19.1307 23.6L19.1627 24.08L19.2067 24.557L19.2627 25.031L19.3317 25.5L19.4117 25.966L19.5047 26.428L19.6077 26.886L19.7237 27.339L19.8497 27.788L19.9877 28.233L20.1367 28.672L20.2967 29.107L20.4667 29.536L20.6477 29.961L20.8387 30.379L21.0407 30.793L21.2527 31.2L21.4737 31.602L21.7047 31.998L21.9457 32.388L22.1957 32.771L22.4557 33.148L22.7247 33.518L23.0017 33.882L23.2887 34.238L23.5837 34.588L23.8877 34.93L24.1997 35.265L24.5197 35.593L24.8477 35.912L25.1837 36.224L25.5277 36.528L25.8787 36.824L26.2377 37.112L26.6037 37.391L26.9767 37.661L27.3567 37.923L27.7437 38.176L28.1367 38.42L28.5367 38.654L28.9427 38.88L29.3547 39.096L29.7727 39.302L30.1977 39.498L30.6267 39.684L31.0627 39.861L31.5027 40.027L31.9487 40.182L32.3997 40.327L32.8557 40.461L33.3157 40.585L33.7817 40.697L34.2507 40.798L34.7247 40.888L35.2027 40.966L35.6847 41.033L36.1697 41.088L36.6597 41.131L37.1517 41.162L37.6487 41.181L38.1477 41.187L38.6467 41.181L39.1437 41.162L39.6357 41.131L40.1257 41.088L40.6117 41.033L41.0937 40.966L41.5717 40.888L42.0457 40.798L42.5147 40.697L42.9807 40.585L43.4407 40.461L43.8967 40.327L44.3477 40.182L44.7937 40.027L45.2347 39.861L45.6697 39.684L46.0997 39.498L46.5247 39.302L46.9427 39.096L47.3547 38.88L47.7617 38.654L48.1617 38.42L48.5547 38.176L48.9417 37.923L49.3217 37.661L49.6947 37.391L50.0607 37.112L50.4197 36.824L50.7707 36.528L51.1147 36.224L51.4507 35.912L51.7797 35.593L52.0997 35.265L52.4117 34.93L52.7157 34.588L53.0107 34.238L53.2967 33.882L53.5747 33.518L53.8437 33.148L54.1027 32.771L54.3537 32.388L54.5947 31.998L54.8257 31.602L55.0477 31.2L55.2587 30.793L55.4607 30.379L55.6517 29.961L55.8327 29.536L56.0037 29.107L56.1627 28.672L56.3117 28.233L56.4497 27.788L56.5767 27.339L56.6917 26.886L56.7957 26.428L56.8877 25.966L56.9687 25.5L57.0367 25.031L57.0937 24.557L57.1377 24.08L57.1697 23.6L57.1887 23.116L57.1947 22.629L57.1887 22.143L57.1697 21.659L57.1377 21.179L57.0937 20.702L57.0367 20.229L56.9687 19.759L56.8877 19.294L56.7957 18.832L56.6917 18.375L56.5767 17.9214L56.4497 17.4727L56.3117 17.0286L56.1627 16.5893L56.0037 16.1548L55.8327 15.7255L55.6517 15.3014L55.4607 14.8826L55.2587 14.4694L55.0477 14.0619L54.8257 13.6602L54.5947 13.2645L54.3537 12.8749L54.1027 12.4917L53.8437 12.1149L53.5747 11.7447L53.2967 11.3812L53.0107 11.0246L52.7157 10.6751L52.4117 10.3329L52.0997 9.9979L51.7797 9.6705L51.4507 9.3508L51.1147 9.0389L50.7707 8.735L50.4197 8.4392L50.0607 8.1516L49.6947 7.8725L49.3217 7.602L48.9417 7.3403L48.5547 7.0874L48.1617 6.8436L47.7617 6.6089L47.3547 6.3836L46.9427 6.1678L46.5247 5.9617L46.0997 5.7654L45.6697 5.579L45.2347 5.4027L44.7937 5.2368L44.3477 5.0812L43.8967 4.9362L43.4407 4.8019L42.9807 4.6785L42.5147 4.5661L42.0457 4.4649L41.5717 4.3751L41.0937 4.2967L40.6117 4.23L40.1257 4.175L39.6357 4.132L39.1437 4.1011L38.6467 4.0824L38.1477 4.0762M75.2537 41.457L75.2527 41.486L75.2527 41.517L75.2477 41.838L75.2377 42.173L75.2237 42.524L75.2227 42.545L75.2217 42.566L75.2047 42.839L75.1857 43.123L75.1817 43.156L75.1797 43.187L75.1537 43.494L75.1217 43.815L75.1197 43.822L75.0817 44.155L75.0377 44.505L75.0317 44.543L75.0267 44.583L74.9767 44.939L74.9197 45.314L74.9147 45.348L74.9087 45.383L74.9087 45.381L74.8647 45.651L74.8177 45.929L74.7667 46.217L74.7117 46.516L74.6527 46.825L74.4387 46.615L74.2257 46.402L74.0157 46.184L73.8087 45.963L73.6037 45.738L73.4017 45.51L73.2027 45.278L73.0057 45.043L72.8107 44.805L72.6197 44.562L72.4307 44.317L72.2447 44.068L72.0617 43.816L71.8807 43.561L71.7037 43.302L71.5287 43.041L71.3567 42.776L71.1877 42.508L71.0217 42.237L70.8597 41.963L70.6997 41.686L70.5427 41.406L70.3897 41.123L70.2387 40.838L70.0917 40.549L69.9477 40.258L69.8077 39.964L69.6697 39.667L69.5357 39.368L69.4047 39.065L69.2777 38.761L69.1537 38.453L69.0327 38.144L68.9157 37.831L68.8027 37.517L68.6927 37.2L68.5857 36.88L68.4837 36.558L68.3837 36.234L68.2887 35.908L68.1967 35.579L68.1087 35.249L68.0247 34.916L67.9437 34.581L67.8667 34.244L67.7947 33.905L67.7257 33.564L67.6607 33.221L67.5997 32.876L67.5427 32.529L67.4897 32.18L67.4407 31.83L67.3957 31.478L67.3547 31.124L67.3177 30.768L67.2857 30.411L67.2577 30.052L67.2337 29.692L67.2137 29.33L67.1987 28.967L67.1877 28.602L67.1807 28.236L67.1787 27.868L67.1797 27.616L67.1827 27.364L67.1877 27.113L67.1957 26.863L67.2057 26.613L67.2167 26.365L67.2307 26.116L67.2467 25.869L67.2637 25.622L67.2837 25.376L67.3057 25.131L67.3297 24.887L67.3557 24.643L67.3837 24.4L67.4127 24.158L67.4447 23.917L67.4787 23.677L67.5137 23.437L67.5517 23.198L67.5907 22.96L67.6317 22.723L67.6747 22.487L67.7197 22.252L67.7667 22.017L67.8147 21.784L67.8657 21.551L67.9177 21.319L67.9717 21.089L68.0267 20.859L68.0847 20.63L68.1437 20.402L68.2037 20.175L68.2667 19.949L68.3307 19.724L68.3967 19.5L68.4637 19.277L68.5327 19.055L68.6037 18.834L68.6087 18.843L68.6127 18.851L68.7037 19.039L68.8517 19.329L69.0337 19.681L69.2277 20.051L69.4107 20.398L69.5607 20.679L69.6397 20.826L69.6727 20.889L69.8417 21.184L70.0077 21.48L70.1717 21.777L70.3337 22.075L70.4927 22.374L70.6497 22.675L70.8037 22.976L70.9557 23.278L71.1057 23.581L71.2527 23.885L71.3977 24.19L71.5397 24.495L71.6797 24.802L71.8167 25.109L71.9517 25.417L72.0837 25.726L72.2127 26.035L72.3407 26.346L72.4647 26.656L72.5867 26.968L72.7067 27.28L72.8227 27.592L72.9377 27.905L73.0487 28.219L73.1577 28.533L73.2647 28.847L73.3687 29.162L73.4697 29.477L73.5677 29.793L73.6637 30.109L73.7567 30.425L73.8477 30.741L73.9347 31.058L74.0197 31.375L74.1027 31.692L74.1817 32.009L74.2587 32.327L74.3327 32.644L74.4037 32.961L74.4727 33.279L74.5387 33.596L74.6007 33.914L74.6617 34.231L74.7187 34.549L74.7727 34.866L74.8247 35.183L74.8737 35.5L74.9187 35.817L74.9617 36.133L75.0027 36.449L75.0397 36.765L75.0737 37.081L75.1047 37.396L75.1337 37.711L75.1587 38.026L75.1817 38.34L75.2007 38.653L75.2177 38.967L75.2317 39.279L75.2417 39.591L75.2497 39.903L75.2537 40.214L75.2557 40.524L75.2557 41.014L75.2557 41.233L75.2537 41.457M1.283 46.912L1.2239 46.604L1.1689 46.308L1.1176 46.023L1.07 45.746L1.0258 45.478L1.0248 45.48L1.0154 45.419L1.0068 45.359L0.9537 45.016L0.9067 44.688L0.8936 44.596L0.8827 44.504L0.8488 44.242L0.8186 43.99L0.8089 43.908L0.8006 43.828L0.772 43.552L0.7486 43.288L0.7412 43.2L0.7346 43.113L0.7162 42.867L0.7015 42.63L0.698 42.56L0.6945 42.491L0.685 42.282L0.6785 42.08L0.677 42.04L0.6755 42.001L0.6704 41.779L0.6675 41.561L0.6661 41.5L0.6655 41.439L0.6641 41.236L0.6635 41.035L0.664 40.779L0.6645 40.524L0.666 40.214L0.6706 39.903L0.6782 39.591L0.6887 39.279L0.7023 38.967L0.7189 38.654L0.7385 38.34L0.761 38.026L0.7865 37.711L0.8149 37.397L0.8462 37.081L0.8805 36.766L0.9177 36.45L0.9578 36.133L1.0008 35.817L1.0466 35.5L1.0954 35.183L1.1469 34.866L1.2014 34.549L1.2586 34.232L1.3187 33.914L1.3816 33.597L1.4473 33.279L1.5158 32.962L1.5871 32.644L1.6611 32.327L1.7379 32.009L1.8175 31.692L1.8998 31.375L1.9848 31.058L2.0725 30.742L2.1629 30.425L2.256 30.109L2.3518 29.793L2.4503 29.477L2.5514 29.162L2.6552 28.847L2.7616 28.533L2.8706 28.219L2.9823 27.905L3.0965 27.592L3.2133 27.28L3.3328 26.968L3.4548 26.657L3.5793 26.346L3.7064 26.036L3.836 25.726L3.9682 25.417L4.1029 25.109L4.2401 24.802L4.3797 24.496L4.5219 24.19L4.6665 23.885L4.8136 23.581L4.9631 23.278L5.1151 22.976L5.2695 22.675L5.4263 22.375L5.5856 22.075L5.7472 21.777L5.9112 21.48L6.0775 21.184L6.2463 20.889L6.2559 20.872L6.2753 20.834L6.3351 20.724L6.4204 20.565L6.574 20.275L6.7493 19.942L6.9284 19.6L7.0931 19.282L7.2254 19.021L7.3072 18.852L7.3403 18.777L7.3712 18.71L7.4444 18.933L7.5158 19.158L7.5855 19.383L7.6535 19.61L7.7198 19.838L7.7844 20.067L7.8472 20.297L7.9082 20.527L7.9674 20.759L8.0248 20.992L8.0804 21.226L8.1342 21.46L8.1861 21.696L8.2362 21.933L8.2844 22.17L8.3307 22.409L8.3751 22.648L8.4176 22.888L8.4582 23.129L8.4968 23.371L8.5334 23.614L8.5681 23.858L8.6008 24.103L8.6315 24.348L8.6601 24.595L8.6868 24.842L8.7113 25.09L8.7339 25.338L8.7543 25.588L8.7727 25.838L8.7889 26.09L8.803 26.341L8.815 26.594L8.8249 26.847L8.8326 27.102L8.8381 27.356L8.8414 27.612L8.8425 27.868L8.8403 28.238L8.8336 28.607L8.8224 28.974L8.8069 29.339L8.787 29.703L8.7628 30.066L8.7343 30.427L8.7016 30.786L8.6646 31.144L8.6234 31.5L8.578 31.854L8.5285 32.207L8.4749 32.557L8.4172 32.906L8.3555 33.253L8.2898 33.598L8.2202 33.941L8.1465 34.282L8.069 34.621L7.9876 34.958L7.9024 35.293L7.8133 35.626L7.7205 35.956L7.624 36.284L7.5237 36.61L7.4197 36.934L7.3121 37.255L7.2009 37.574L7.0861 37.89L6.9677 38.204L6.8459 38.515L6.7205 38.824L6.5917 39.13L6.4595 39.434L6.3238 39.735L6.1849 40.033L6.0426 40.328L5.897 40.621L5.7482 40.911L5.5961 41.198L5.4408 41.482L5.2824 41.763L5.1209 42.041L4.9562 42.316L4.7885 42.588L4.6178 42.856L4.444 43.122L4.2673 43.385L4.0877 43.644L3.9052 43.9L3.7198 44.152L3.5315 44.402L3.3405 44.648L3.1467 44.89L2.9501 45.129L2.7509 45.365L2.5489 45.597L2.3444 45.825L2.1372 46.05L1.9274 46.271L1.7151 46.488L1.5003 46.702L1.283 46.912" sodipodi:nodetypes="cccccccccccccccccccccccccccccccccccccccccccccccccccccccccccccccccccccccccccccccccccccccccccccccccccccccccccccccccccccccccccccccccccccccccccccccccccccccccccccccccccccccccccccccccccccccccccccccccccccccccccccccccccccccccccccccccccccccccccccccccccccccccccccccccccccccccccccccccccccccccccccccccccccccccccccccccccccccccccccccccccccccccccccccccccccccccccccccccccccccccccccccccccccccccccccccccccccccccccccccccccccccccccccccccccccccccccccccccccccccccccccccccccccccccccccccccccccccccccccccccccccccccccccccccccccccccccccccccccccccccccccccccccccccccccccccccccccccccccccccccccccccccccccccccccccccccccccccccccccccccccccccccccccccccccccccccccccccccccccccccccccccccccccccccccccccccccccccccccccccccccccccccccccccccccccccccccccccccccccccccccccccccccccccccccccccccccccccccccccccccccccccccccccccccccccccccccccccccccccccccccccccccccccccccccccccccccccccccccc"/>
  <path id="shape1" transform="translate(15.7453366794053, 49.8967553328357)" fill="#737373" fill-rule="evenodd" stroke-opacity="0" stroke="#000000" stroke-width="0" stroke-linecap="square" stroke-linejoin="bevel" d="M20.0906 0L26.0866 0L35.3076 2.024L43.0286 5.024L46.1766 7.946L47.0766 11.17L46.3266 16.042L44.0786 21.964L38.6796 25.563L29.6106 27.662L19.7896 27.212L10.2696 25.712L3.523 21.74L0.8247 15.293L0 10.046L1.3491 7.122L8.8456 2.625L14.7676 0.9L20.0906 0M30.3006 11.966L30.3026 11.634L30.3076 11.304L30.3166 10.977L30.3296 10.654L30.3456 10.334L30.3656 10.019L30.3896 9.708L30.4176 9.404L30.4506 9.105L30.4866 8.814L30.5276 8.529L30.5736 8.253L30.6236 7.985L30.6776 7.727L30.7376 7.478L30.8016 7.239L30.8706 7.012L30.9456 6.795L31.0246 6.591L31.1086 6.4L31.1986 6.221L31.2946 6.057L31.3956 5.907L31.5016 5.772L31.6136 5.652L31.7316 5.548L31.9846 5.419L32.3026 5.353L32.6516 5.341L32.9996 5.374L33.3126 5.445L33.4116 5.491L33.5076 5.556L33.6016 5.639L33.6906 5.74L33.7776 5.857L33.8606 5.991L33.9406 6.142L34.0176 6.308L34.0906 6.49L34.1596 6.687L34.2256 6.899L34.2886 7.125L34.3466 7.365L34.4016 7.618L34.4536 7.885L34.5006 8.164L34.5446 8.456L34.5836 8.76L34.6196 9.075L34.6506 9.401L34.6786 9.739L34.7016 10.086L34.7216 10.444L34.7366 10.811L34.7476 11.187L34.7536 11.572L34.7566 11.966L34.7406 12.421L34.7176 12.858L34.6866 13.277L34.6486 13.678L34.6046 14.06L34.5546 14.425L34.4996 14.771L34.4396 15.099L34.3746 15.409L34.3066 15.7L34.2346 15.974L34.1596 16.23L34.0826 16.467L34.0026 16.686L33.9216 16.888L33.8406 17.071L33.7586 17.237L33.6756 17.384L33.5946 17.513L33.5136 17.625L33.4346 17.718L33.3576 17.794L33.2826 17.851L33.2116 17.891L32.9366 17.952L32.6886 18.001L32.4436 18.016L32.1796 17.975L31.8736 17.857L31.5016 17.64L31.4376 17.487L31.3716 17.32L31.3036 17.138L31.2346 16.943L31.1646 16.736L31.0936 16.517L31.0236 16.288L30.9546 16.05L30.8856 15.802L30.8186 15.548L30.7536 15.286L30.6906 15.019L30.6306 14.747L30.5746 14.471L30.5226 14.192L30.4746 13.911L30.4316 13.629L30.3936 13.347L30.3616 13.065L30.3356 12.785L30.3166 12.508L30.3056 12.235L30.3006 11.966M17.4766 11.966L17.4746 11.634L17.4696 11.304L17.4606 10.977L17.4476 10.654L17.4316 10.334L17.4116 10.019L17.3876 9.708L17.3596 9.404L17.3266 9.105L17.2906 8.814L17.2496 8.529L17.2036 8.253L17.1536 7.985L17.0996 7.727L17.0396 7.478L16.9756 7.239L16.9066 7.012L16.8316 6.795L16.7526 6.591L16.6686 6.4L16.5786 6.221L16.4826 6.057L16.3816 5.907L16.2756 5.772L16.1636 5.652L16.0456 5.548L15.7926 5.419L15.4746 5.353L15.1256 5.341L14.7776 5.374L14.4646 5.445L14.3656 5.491L14.2696 5.556L14.1756 5.639L14.0866 5.74L13.9996 5.857L13.9166 5.991L13.8366 6.142L13.7596 6.308L13.6866 6.49L13.6176 6.687L13.5516 6.899L13.4886 7.125L13.4306 7.365L13.3756 7.618L13.3236 7.885L13.2766 8.164L13.2326 8.456L13.1936 8.76L13.1576 9.075L13.1266 9.401L13.0986 9.739L13.0756 10.086L13.0556 10.444L13.0406 10.811L13.0296 11.187L13.0236 11.572L13.0206 11.966L13.0366 12.421L13.0596 12.858L13.0906 13.277L13.1286 13.678L13.1726 14.06L13.2226 14.425L13.2776 14.771L13.3376 15.099L13.4026 15.409L13.4706 15.7L13.5426 15.974L13.6176 16.23L13.6946 16.467L13.7746 16.686L13.8556 16.888L13.9366 17.071L14.0186 17.237L14.1016 17.384L14.1826 17.513L14.2636 17.625L14.3426 17.718L14.4196 17.794L14.4946 17.851L14.5656 17.891L14.8406 17.952L15.0886 18.001L15.3336 18.016L15.5976 17.975L15.9036 17.857L16.2756 17.64L16.3396 17.487L16.4056 17.32L16.4736 17.138L16.5426 16.943L16.6126 16.736L16.6836 16.517L16.7536 16.288L16.8226 16.05L16.8916 15.802L16.9586 15.548L17.0236 15.286L17.0866 15.019L17.1466 14.747L17.2026 14.471L17.2546 14.192L17.3026 13.911L17.3456 13.629L17.3836 13.347L17.4156 13.065L17.4416 12.785L17.4606 12.508L17.4716 12.235L17.4766 11.966" sodipodi:nodetypes="ccccccccccccccccccccccccccccccccccccccccccccccccccccccccccccccccccccccccccccccccccccccccccccccccccccccccccccccccccccccccccccccccccccccccccccccccccccccccccccccccccccccccccccccccccccccccccccccccccccccccccccccccccccccccccccccccccccccccccccccccccc"/>
  <path id="path3514" transform="matrix(1.00085540997024 0 0 -1.00085540997024 -1.06900178398206e-06 78.9895106656714)" fill="#4c4c4c" stroke-opacity="0" stroke="#000000" stroke-width="0" stroke-linecap="square" stroke-linejoin="bevel" d="M75.5959 31.586C75.5819 31.53 75.4699 31.065 75.4619 31.034C75.4549 31.011 75.4479 30.981 75.4479 30.981C75.1259 29.838 74.6539 28.648 74.0429 27.462L74.0429 27.463C72.0059 23.512 68.4139 19.633 63.6409 17.886C63.6399 17.885 63.6389 17.885 63.6379 17.884C63.6449 19.419 63.5259 20.429 63.5229 20.463L63.4949 20.753L63.3199 20.996C58.9559 26.613 50.0469 30.232 39.4219 30.259C28.6699 30.232 19.3589 26.689 15.1519 20.988L14.9759 20.746L14.9499 20.456C14.9469 20.423 14.8239 19.534 14.8019 18.158C13.9189 18.511 13.0719 18.931 12.2629 19.412C12.2599 19.414 12.2569 19.415 12.2539 19.417C11.7159 19.738 11.1959 20.086 10.6949 20.461L10.6939 20.462C9.94285 21.024 9.23385 21.644 8.57485 22.316C8.57185 22.319 8.56785 22.323 8.56385 22.327C8.12585 22.774 7.71185 23.243 7.31985 23.733C7.31785 23.737 7.31485 23.74 7.31285 23.743C6.72385 24.482 6.18785 25.269 5.70985 26.099C5.70485 26.107 5.69985 26.115 5.69585 26.123C5.38085 26.671 5.09185 27.238 4.82885 27.822L4.81785 27.849C4.68685 28.143 4.56185 28.44 4.44385 28.742C4.16285 29.464 3.91985 30.209 3.72185 30.976C3.72185 30.979 3.62785 31.4 3.62785 31.4L3.60985 31.534C3.19385 33.473 2.99085 35.517 2.99085 37.616C2.99085 44.677 5.28285 52.373 9.46485 58.837C9.61485 59.064 9.69585 59.188 9.75485 59.281L9.74485 59.262C16.6929 69.655 27.2649 75.573 39.5139 75.926L39.8449 75.926C52.0189 75.576 62.5469 69.625 69.4919 59.168C69.4919 59.167 69.7659 58.746 69.7659 58.746L69.7599 58.733C73.9509 52.232 76.2079 44.72 76.2079 37.7C76.2079 35.606 76.0059 33.554 75.5959 31.586M54.3059 5.282C49.6749 3.471 44.8529 3.077 41.6269 3.061L40.4219 3.059C40.4219 3.039 39.3699 3.046 39.3659 3.046C39.3409 3.046 38.2929 3.039 38.2929 3.039C38.2879 3.059 37.0779 3.061 37.0779 3.061C33.8569 3.077 29.0339 3.471 24.4049 5.282C17.4099 8.01 17.1129 16.289 17.1129 19.185C17.1129 19.598 17.1209 19.695 17.1349 19.866C21.1079 24.467 29.4509 27.284 39.2979 27.309C49.2599 27.284 57.4089 24.018 61.3859 19.806C61.3939 19.635 61.4039 19.537 61.4039 19.124C61.4039 16.228 61.3059 8.01 54.3059 5.282M72.2789 60.357L72.2779 60.358L72.2809 60.374L71.9969 60.811C64.4869 72.119 53.0989 78.546 39.9199 78.921L39.8989 78.922L39.4599 78.922L39.4399 78.921C26.1889 78.543 14.7579 72.152 7.25385 60.927C7.23785 60.901 6.95685 60.477 6.95685 60.477C1.10685 51.436 -1.29615 40.108 0.679858 30.905L0.682858 30.917C0.712858 30.709 0.756858 30.493 0.814858 30.251C1.34585 28.2 2.14185 26.28 3.15985 24.527C3.16085 24.524 3.16185 24.523 3.16385 24.521C3.56985 23.821 4.01085 23.15 4.48585 22.507C4.48685 22.506 4.48785 22.504 4.48885 22.503C4.72285 22.186 4.96485 21.875 5.21485 21.573L5.24185 21.541C5.74185 20.94 6.27085 20.366 6.82785 19.825C6.83785 19.816 6.84785 19.807 6.85785 19.797C7.13085 19.533 7.41085 19.277 7.69785 19.028C7.71885 19.011 7.73985 18.993 7.75985 18.975C8.33685 18.478 8.94085 18.013 9.56785 17.58L9.62585 17.539C9.93285 17.33 10.2439 17.13 10.5619 16.937C10.5949 16.917 10.6269 16.898 10.6599 16.878C11.3049 16.49 11.9709 16.136 12.6579 15.818C12.6859 15.806 12.7139 15.792 12.7419 15.778C13.0769 15.626 13.4159 15.482 13.7599 15.347C13.8029 15.329 13.8449 15.314 13.8879 15.297C14.2399 15.161 14.5929 15.032 14.9529 14.915C15.4449 10.476 17.3359 4.632 23.6279 2.385C28.6179 0.604 33.6619 0.038 37.0709 0.024C37.0779 0.024 38.2689 0.019 38.2689 0.019C38.2929 3.55271e-15 39.3659 0.004 39.3659 0.004L40.4219 0C40.4439 0.019 41.6339 0.024 41.6339 0.024C45.0459 0.038 50.0729 0.657 55.0819 2.385C61.0099 4.43 62.8979 10.191 63.4409 14.666C63.7879 14.767 64.1299 14.877 64.4669 14.995L64.6219 15.051C64.9279 15.161 65.2299 15.277 65.5259 15.4C65.5529 15.412 65.5799 15.423 65.6079 15.435C65.9319 15.571 66.2509 15.717 66.5649 15.869C66.6029 15.888 66.6399 15.907 66.6779 15.926C66.9599 16.066 67.2379 16.211 67.5109 16.363C67.5489 16.384 67.5869 16.404 67.6249 16.426C67.9279 16.596 68.2249 16.774 68.5169 16.957C68.5339 16.968 68.5509 16.98 68.5689 16.99C68.8399 17.163 69.1059 17.343 69.3669 17.526C69.4079 17.555 69.4489 17.583 69.4889 17.611C70.0419 18.006 70.5729 18.424 71.0799 18.863C71.1179 18.897 71.1579 18.93 71.1959 18.963C71.6999 19.405 72.1829 19.867 72.6419 20.347C72.6739 20.381 72.7069 20.415 72.7399 20.449C73.1979 20.934 73.6329 21.434 74.0439 21.948C74.0689 21.979 74.0919 22.009 74.1169 22.04C74.3089 22.282 74.4939 22.526 74.6759 22.774C74.6899 22.792 74.7029 22.81 74.7169 22.829C74.9109 23.096 75.0999 23.366 75.2819 23.639C75.2949 23.66 75.3089 23.682 75.3239 23.702C75.4909 23.954 75.6519 24.208 75.8079 24.464L75.8639 24.555C76.0319 24.832 76.1939 25.11 76.3479 25.391C76.3489 25.392 76.3489 25.393 76.3499 25.394C77.2239 26.978 77.8899 28.599 78.3309 30.17L78.3539 30.249C78.3619 30.279 78.5159 30.916 78.5159 30.916L78.5259 30.961C80.4749 40.275 78.1399 51.265 72.2789 60.357" sodipodi:nodetypes="cccccccccccccccccccccccccccccccccccccccccccccccccccccccccccccccccccccccccccccccccccccccccccccccccccccccccccccccccccccccccccccc"/>
 </g>
</svg>
