<svg xmlns="http://www.w3.org/2000/svg" xmlns:xlink="http://www.w3.org/1999/xlink" xmlns:krita="http://krita.org/namespaces/svg/krita" xmlns:sodipodi="http://sodipodi.sourceforge.net/DTD/sodipodi-0.dtd" viewBox="81.39 80 77.22 80">
<defs/>
<g id="group0" transform="translate(81.9900055946751, 80.6005137060605)" fill="none">
  <path id="shape01" transform="matrix(1.17314797547299 0 0 1.17314797547299 40.8255495464601 52.5854177771851)" fill="#666666" fill-rule="evenodd" stroke="#4c4c4c" stroke-width="1.2" stroke-linecap="square" stroke-linejoin="bevel" d="M0 19.2212C5.70826 -10.323 29.5032 2.49245 30 4.37117C28.5063 11.4186 26.3813 21.4832 0.584992 19.9712L0 19.2212" sodipodi:nodetypes="cccc"/>
  <path id="shape011" transform="matrix(-1.17314797547299 0 0 1.17314797547299 35.1944392641897 52.585127327345)" fill="#666666" stroke="#4c4c4c" stroke-width="1.2" stroke-linecap="square" stroke-linejoin="bevel" d="M0 19.2212C5.70826 -10.323 29.5032 2.49245 30 4.37117C28.5063 11.4186 26.3813 21.4832 0.584992 19.9712L0 19.2212" sodipodi:nodetypes="cccc"/>
  <path id="shape11" transform="matrix(1.17314797547299 0 0 1.17314797547299 32.8012173942248 50.6738670722762)" fill="#595959" fill-rule="evenodd" stroke="#4c4c4c" stroke-width="1.2" stroke-linecap="square" stroke-linejoin="bevel" d="M0 0L8.88 0L8.88 22.8011C5.96792 24.3161 3.01075 24.4057 0 22.8011Z" sodipodi:nodetypes="ccccc"/>
  <path id="shape0" transform="translate(-81.9900055946751, -80.6005137060605)" fill="#595959" fill-rule="evenodd" stroke="none" stroke-width="1.2" stroke-linecap="square" stroke-linejoin="bevel" d="M153.787 106.643L153.775 105.961L153.741 105.282L153.685 104.608L153.607 103.939L153.507 103.275L153.385 102.616L153.242 101.963L153.079 101.315L152.894 100.673L152.69 100.037L152.465 99.4069L152.22 98.7836L151.956 98.167L151.673 97.5573L151.371 96.9547L151.05 96.3595L150.71 95.7718L150.353 95.1918L149.977 94.6199L149.584 94.0561L149.174 93.5007L148.746 92.954L148.302 92.416L147.842 91.8872L147.365 91.3676L146.872 90.8574L146.364 90.357L145.84 89.8664L145.302 89.386L144.748 88.9159L144.18 88.4564L143.598 88.0076L143.002 87.5698L142.392 87.1432L141.768 86.728L141.132 86.3244L140.482 85.9327L139.821 85.553L139.146 85.1856L138.46 84.8306L137.762 84.4884L137.053 84.159L136.332 83.8428L135.601 83.5399L134.859 83.2505L134.106 82.975L133.343 82.7134L132.571 82.466L131.789 82.233L130.998 82.0146L130.198 81.811L129.389 81.6226L128.572 81.4493L127.747 81.2916L126.914 81.1495L126.073 81.0234L125.225 80.9134L124.37 80.8197L123.509 80.7426L122.64 80.6822L121.766 80.6388L120.886 80.6126L120 80.6039L119.114 80.6126L118.234 80.6388L117.36 80.6822L116.491 80.7426L115.63 80.8197L114.775 80.9134L113.927 81.0234L113.086 81.1495L112.253 81.2916L111.428 81.4493L110.611 81.6226L109.802 81.811L109.002 82.0146L108.211 82.233L107.429 82.466L106.657 82.7134L105.894 82.975L105.141 83.2505L104.399 83.5399L103.668 83.8428L102.947 84.159L102.238 84.4884L101.54 84.8306L100.854 85.1856L100.179 85.553L99.5175 85.9327L98.8682 86.3244L98.2317 86.728L97.6083 87.1432L96.9984 87.5698L96.4021 88.0076L95.8198 88.4564L95.2518 88.9159L94.6983 89.386L94.1595 89.8664L93.6359 90.357L93.1276 90.8574L92.6349 91.3676L92.1582 91.8872L91.6976 92.416L91.2535 92.954L90.8262 93.5007L90.4159 94.0561L90.0229 94.6199L89.6475 95.1918L89.2899 95.7718L88.9505 96.3595L88.6294 96.9547L88.3271 97.5573L88.0438 98.167L87.7797 98.7836L87.5351 99.4069L87.3103 100.037L87.1057 100.673L86.9214 101.315L86.7577 101.963L86.6149 102.616L86.4934 103.275L86.3933 103.939L86.315 104.608L86.2587 105.282L86.2247 105.961L86.2133 106.643L86.2247 107.326L86.2587 108.004L86.315 108.678L86.3933 109.347L86.4934 110.012L86.6149 110.67L86.7577 111.324L86.9214 111.972L87.1057 112.614L87.3103 113.25L87.5351 113.88L87.7797 114.503L88.0438 115.12L88.3271 115.729L88.6294 116.332L88.9505 116.927L89.2899 117.515L89.6475 118.095L90.0229 118.667L90.4159 119.231L90.8262 119.786L91.2535 120.333L91.6976 120.871L92.1582 121.4L92.6349 121.919L93.1276 122.429L93.6359 122.93L94.1595 123.42L94.6983 123.901L95.2518 124.371L95.8198 124.83L96.4021 125.279L96.9984 125.717L97.6083 126.143L98.2317 126.559L98.8682 126.962L99.5175 127.354L100.179 127.734L100.854 128.101L101.54 128.456L102.238 128.798L102.947 129.128L103.668 129.444L104.399 129.747L105.141 130.036L105.894 130.312L106.657 130.573L107.429 130.821L108.211 131.054L109.002 131.272L109.802 131.476L110.611 131.664L111.428 131.837L112.253 131.995L113.086 132.137L113.927 132.263L114.775 132.373L115.63 132.467L116.491 132.544L117.36 132.604L118.234 132.648L119.114 132.674L120 132.683L120.886 132.674L121.766 132.648L122.64 132.604L123.509 132.544L124.37 132.467L125.225 132.373L126.073 132.263L126.914 132.137L127.747 131.995L128.572 131.837L129.389 131.664L130.198 131.476L130.998 131.272L131.789 131.054L132.571 130.821L133.343 130.573L134.106 130.312L134.859 130.036L135.601 129.747L136.332 129.444L137.053 129.128L137.762 128.798L138.46 128.456L139.146 128.101L139.821 127.734L140.482 127.354L141.132 126.962L141.768 126.559L142.392 126.143L143.002 125.717L143.598 125.279L144.18 124.83L144.748 124.371L145.302 123.901L145.84 123.42L146.364 122.93L146.872 122.429L147.365 121.919L147.842 121.4L148.302 120.871L148.746 120.333L149.174 119.786L149.584 119.231L149.977 118.667L150.353 118.095L150.71 117.515L151.05 116.927L151.371 116.332L151.673 115.729L151.956 115.12L152.22 114.503L152.465 113.88L152.69 113.25L152.894 112.614L153.079 111.972L153.242 111.324L153.385 110.67L153.507 110.012L153.607 109.347L153.685 108.678L153.741 108.004L153.775 107.326L153.787 106.643M127.039 100.726L127.525 100.792L127.963 100.976L128.333 101.262L128.619 101.633L128.804 102.07L128.869 102.556L128.869 109.314L128.804 109.8L128.619 110.237L128.333 110.608L127.963 110.894L127.525 111.078L127.039 111.144L126.552 111.078L126.115 110.894L125.745 110.608L125.459 110.237L125.274 109.8L125.209 109.314L125.209 102.556L125.274 102.07L125.459 101.633L125.745 101.262L126.115 100.976L126.552 100.792L127.039 100.726M112.961 100.726L113.448 100.792L113.885 100.976L114.255 101.262L114.541 101.633L114.726 102.07L114.791 102.556L114.791 109.314L114.726 109.8L114.541 110.237L114.255 110.608L113.885 110.894L113.448 111.078L112.961 111.144L112.475 111.078L112.037 110.894L111.667 110.608L111.381 110.237L111.196 109.8L111.131 109.314L111.131 102.556L111.196 102.07L111.381 101.633L111.667 101.262L112.037 100.976L112.475 100.792L112.961 100.726" sodipodi:nodetypes="ccccccccccccccccccccccccccccccccccccccccccccccccccccccccccccccccccccccccccccccccccccccccccccccccccccccccccccccccccccccccccccccccccccccccccccccccccccccccccccccccccccccccccccccccccccccccccccccccccccccccccccccccccccccccccccccccccccccccccccccccccccccccccccccccccccccccccccccccccccccccccccccccccccccccccccccccccc"/>
  <ellipse id="shape2" transform="matrix(1.17314797547299 0 0 1.17314797547299 4.22333271170275 0)" rx="28.8" ry="22.1962504631531" cx="28.8" cy="22.1962504631531" fill="none" stroke="#4c4c4c" stroke-width="1.2" stroke-linecap="square" stroke-linejoin="bevel"/>
  <path id="shape1" transform="translate(-81.9900055946751, -80.6005137060605)" fill="#737373" fill-rule="evenodd" stroke="none" stroke-width="1.2" stroke-linecap="square" stroke-linejoin="bevel" d="M145.34 107.118L145.331 106.622L145.306 106.129L145.264 105.638L145.205 105.152L145.13 104.669L145.039 104.189L144.932 103.714L144.809 103.243L144.671 102.776L144.517 102.313L144.349 101.855L144.165 101.402L143.967 100.953L143.755 100.51L143.528 100.072L143.287 99.6388L143.033 99.2114L142.764 98.7896L142.483 98.3736L142.188 97.9635L141.88 97.5596L141.56 97.1619L141.227 96.7707L140.881 96.386L140.524 96.0081L140.154 95.6371L139.773 95.2731L139.38 94.9163L138.976 94.5669L138.561 94.225L138.135 93.8908L137.698 93.5644L137.251 93.2459L136.794 92.9357L136.326 92.6337L135.849 92.3402L135.362 92.0552L134.865 91.7791L134.36 91.5118L133.845 91.2537L133.322 91.0047L132.79 90.7652L132.249 90.5352L131.7 90.3149L131.144 90.1045L130.58 89.904L130.008 89.7137L129.428 89.5338L128.842 89.3643L128.249 89.2055L127.649 89.0575L127.042 88.9204L126.429 88.7944L125.81 88.6797L125.185 88.5763L124.555 88.4846L123.919 88.4046L123.278 88.3364L122.631 88.2804L121.98 88.2364L121.325 88.2049L120.664 88.1859L120 88.1795L119.336 88.1859L118.675 88.2049L118.02 88.2364L117.369 88.2804L116.722 88.3364L116.081 88.4046L115.445 88.4846L114.815 88.5763L114.19 88.6797L113.571 88.7944L112.958 88.9204L112.351 89.0575L111.751 89.2055L111.158 89.3643L110.572 89.5338L109.992 89.7137L109.42 89.904L108.856 90.1045L108.3 90.3149L107.751 90.5352L107.21 90.7652L106.678 91.0047L106.155 91.2537L105.64 91.5118L105.135 91.7791L104.638 92.0552L104.151 92.3402L103.674 92.6337L103.206 92.9357L102.749 93.2459L102.302 93.5644L101.865 93.8908L101.439 94.225L101.024 94.5669L100.62 94.9163L100.227 95.2731L99.8457 95.6371L99.4762 96.0081L99.1186 96.386L98.7732 96.7707L98.4402 97.1619L98.1197 97.5596L97.8119 97.9635L97.5172 98.3736L97.2356 98.7896L96.9674 99.2114L96.7128 99.6388L96.4721 100.072L96.2453 100.51L96.0328 100.953L95.8348 101.402L95.6513 101.855L95.4828 102.313L95.3293 102.776L95.191 103.243L95.0683 103.714L94.9612 104.189L94.87 104.669L94.795 105.152L94.7362 105.638L94.694 106.129L94.6685 106.622L94.66 107.118L94.6685 107.615L94.694 108.108L94.7362 108.599L94.795 109.085L94.87 109.568L94.9612 110.047L95.0683 110.523L95.191 110.994L95.3293 111.461L95.4828 111.924L95.6513 112.382L95.8348 112.835L96.0328 113.283L96.2453 113.727L96.4721 114.165L96.7128 114.598L96.9674 115.026L97.2356 115.447L97.5172 115.863L97.8119 116.273L98.1197 116.677L98.4402 117.075L98.7732 117.466L99.1186 117.851L99.4762 118.229L99.8457 118.6L100.227 118.964L100.62 119.321L101.024 119.67L101.439 120.012L101.865 120.346L102.302 120.673L102.749 120.991L103.206 121.301L103.674 121.603L104.151 121.897L104.638 122.182L105.135 122.458L105.64 122.725L106.155 122.983L106.678 123.232L107.21 123.472L107.751 123.702L108.3 123.922L108.856 124.133L109.42 124.333L109.992 124.523L110.572 124.703L111.158 124.873L111.751 125.031L112.351 125.179L112.958 125.317L113.571 125.443L114.19 125.557L114.815 125.661L115.445 125.752L116.081 125.832L116.722 125.901L117.369 125.957L118.02 126.001L118.675 126.032L119.336 126.051L120 126.057L120.664 126.051L121.325 126.032L121.98 126.001L122.631 125.957L123.278 125.901L123.919 125.832L124.555 125.752L125.185 125.661L125.81 125.557L126.429 125.443L127.042 125.317L127.649 125.179L128.249 125.031L128.842 124.873L129.428 124.703L130.008 124.523L130.58 124.333L131.144 124.133L131.7 123.922L132.249 123.702L132.79 123.472L133.322 123.232L133.845 122.983L134.36 122.725L134.865 122.458L135.362 122.182L135.849 121.897L136.326 121.603L136.794 121.301L137.251 120.991L137.698 120.673L138.135 120.346L138.561 120.012L138.976 119.67L139.38 119.321L139.773 118.964L140.154 118.6L140.524 118.229L140.881 117.851L141.227 117.466L141.56 117.075L141.88 116.677L142.188 116.273L142.483 115.863L142.764 115.447L143.033 115.026L143.287 114.598L143.528 114.165L143.755 113.727L143.967 113.283L144.165 112.835L144.349 112.382L144.517 111.924L144.671 111.461L144.809 110.994L144.932 110.523L145.039 110.047L145.13 109.568L145.205 109.085L145.264 108.599L145.306 108.108L145.331 107.615L145.34 107.118M127.039 100.73L127.525 100.796L127.963 100.98L128.333 101.266L128.619 101.637L128.804 102.074L128.869 102.56L128.869 109.318L128.804 109.804L128.619 110.241L128.333 110.612L127.963 110.898L127.525 111.082L127.039 111.148L126.552 111.082L126.115 110.898L125.745 110.612L125.459 110.241L125.274 109.804L125.209 109.318L125.209 102.56L125.274 102.074L125.459 101.637L125.745 101.266L126.115 100.98L126.552 100.796L127.039 100.73M112.961 100.73L113.448 100.796L113.885 100.98L114.255 101.266L114.541 101.637L114.726 102.074L114.791 102.56L114.791 109.318L114.726 109.804L114.541 110.241L114.255 110.612L113.885 110.898L113.448 111.082L112.961 111.148L112.475 111.082L112.037 110.898L111.667 110.612L111.381 110.241L111.196 109.804L111.131 109.318L111.131 102.56L111.196 102.074L111.381 101.637L111.667 101.266L112.037 100.98L112.475 100.796L112.961 100.73" sodipodi:nodetypes="ccccccccccccccccccccccccccccccccccccccccccccccccccccccccccccccccccccccccccccccccccccccccccccccccccccccccccccccccccccccccccccccccccccccccccccccccccccccccccccccccccccccccccccccccccccccccccccccccccccccccccccccccccccccccccccccccccccccccccccccccccccccccccccccccccccccccccccccccccccccccccccccccccccccccccccccccccc"/>
  <ellipse id="shape02" transform="matrix(1.17314797547299 0 0 1.17314797547299 12.6699981351083 7.58047883121387)" rx="21.6" ry="16.1437498582306" cx="21.6" cy="16.1437498582306" fill="none" stroke="#4c4c4c" stroke-width="1.2" stroke-linecap="square" stroke-linejoin="bevel"/>
  <path id="shape3" transform="translate(-81.9900055946751, -80.7826106435596)" fill="#8c8c8c" fill-rule="evenodd" stroke="none" stroke-width="1.2" stroke-linecap="square" stroke-linejoin="bevel" d="M135.486 106.982L135.48 106.677L135.465 106.375L135.439 106.074L135.403 105.775L135.357 105.479L135.301 105.185L135.236 104.893L135.161 104.604L135.077 104.317L134.983 104.033L134.88 103.752L134.768 103.474L134.647 103.199L134.517 102.926L134.378 102.657L134.231 102.392L134.075 102.129L133.912 101.871L133.74 101.615L133.559 101.364L133.371 101.116L133.175 100.872L132.972 100.632L132.761 100.396L132.542 100.164L132.317 99.9359L132.084 99.7125L131.844 99.4936L131.597 99.2791L131.343 99.0693L131.083 98.8642L130.816 98.6639L130.542 98.4685L130.263 98.278L129.977 98.0927L129.685 97.9126L129.388 97.7377L129.084 97.5682L128.775 97.4042L128.461 97.2458L128.141 97.093L127.816 96.946L127.486 96.8049L127.15 96.6697L126.81 96.5405L126.465 96.4175L126.116 96.3007L125.762 96.1903L125.403 96.0863L125.041 95.9888L124.674 95.898L124.303 95.8138L123.929 95.7365L123.551 95.6661L123.169 95.6027L122.784 95.5464L122.395 95.4973L122.003 95.4555L121.608 95.421L121.21 95.3941L120.809 95.3747L120.406 95.363L120 95.3591L119.594 95.363L119.191 95.3747L118.79 95.3941L118.392 95.421L117.997 95.4555L117.605 95.4973L117.216 95.5464L116.831 95.6027L116.449 95.6661L116.071 95.7365L115.697 95.8138L115.326 95.898L114.959 95.9888L114.597 96.0863L114.238 96.1903L113.884 96.3007L113.535 96.4175L113.19 96.5405L112.85 96.6697L112.514 96.8049L112.184 96.946L111.859 97.093L111.539 97.2458L111.225 97.4042L110.916 97.5682L110.612 97.7377L110.315 97.9126L110.023 98.0927L109.737 98.278L109.458 98.4685L109.184 98.6639L108.917 98.8642L108.657 99.0693L108.403 99.2791L108.156 99.4936L107.916 99.7125L107.683 99.9359L107.458 100.164L107.239 100.396L107.028 100.632L106.825 100.872L106.629 101.116L106.441 101.364L106.26 101.615L106.088 101.871L105.925 102.129L105.769 102.392L105.622 102.657L105.483 102.926L105.353 103.199L105.232 103.474L105.12 103.752L105.017 104.033L104.923 104.317L104.839 104.604L104.764 104.893L104.699 105.185L104.643 105.479L104.597 105.775L104.561 106.074L104.535 106.375L104.52 106.677L104.514 106.982L104.52 107.287L104.535 107.59L104.561 107.89L104.597 108.189L104.643 108.486L104.699 108.78L104.764 109.071L104.839 109.361L104.923 109.647L105.017 109.931L105.12 110.212L105.232 110.49L105.353 110.766L105.483 111.038L105.622 111.307L105.769 111.572L105.925 111.835L106.088 112.094L106.26 112.349L106.441 112.601L106.629 112.848L106.825 113.092L107.028 113.333L107.239 113.569L107.458 113.801L107.683 114.028L107.916 114.252L108.156 114.471L108.403 114.685L108.657 114.895L108.917 115.1L109.184 115.3L109.458 115.496L109.737 115.686L110.023 115.871L110.315 116.052L110.612 116.226L110.916 116.396L111.225 116.56L111.539 116.718L111.859 116.871L112.184 117.018L112.514 117.159L112.85 117.295L113.19 117.424L113.535 117.547L113.884 117.663L114.238 117.774L114.597 117.878L114.959 117.975L115.326 118.066L115.697 118.15L116.071 118.228L116.449 118.298L116.831 118.361L117.216 118.418L117.605 118.467L117.997 118.509L118.392 118.543L118.79 118.57L119.191 118.589L119.594 118.601L120 118.605L120.406 118.601L120.809 118.589L121.21 118.57L121.608 118.543L122.003 118.509L122.395 118.467L122.784 118.418L123.169 118.361L123.551 118.298L123.929 118.228L124.303 118.15L124.674 118.066L125.041 117.975L125.403 117.878L125.762 117.774L126.116 117.663L126.465 117.547L126.81 117.424L127.15 117.295L127.486 117.159L127.816 117.018L128.141 116.871L128.461 116.718L128.775 116.56L129.084 116.396L129.388 116.226L129.685 116.052L129.977 115.871L130.263 115.686L130.542 115.496L130.816 115.3L131.083 115.1L131.343 114.895L131.597 114.685L131.844 114.471L132.084 114.252L132.317 114.028L132.542 113.801L132.761 113.569L132.972 113.333L133.175 113.092L133.371 112.848L133.559 112.601L133.74 112.349L133.912 112.094L134.075 111.835L134.231 111.572L134.378 111.307L134.517 111.038L134.647 110.766L134.768 110.49L134.88 110.212L134.983 109.931L135.077 109.647L135.161 109.361L135.236 109.071L135.301 108.78L135.357 108.486L135.403 108.189L135.439 107.89L135.465 107.59L135.48 107.287L135.486 106.982M127.039 100.726L127.525 100.792L127.963 100.976L128.333 101.262L128.619 101.633L128.804 102.07L128.869 102.556L128.869 109.314L128.804 109.8L128.619 110.237L128.333 110.608L127.963 110.894L127.525 111.078L127.039 111.144L126.552 111.078L126.115 110.894L125.745 110.608L125.459 110.237L125.274 109.8L125.209 109.314L125.209 102.556L125.274 102.07L125.459 101.633L125.745 101.262L126.115 100.976L126.552 100.792L127.039 100.726M112.961 100.726L113.448 100.792L113.885 100.976L114.255 101.262L114.541 101.633L114.726 102.07L114.791 102.556L114.791 109.314L114.726 109.8L114.541 110.237L114.255 110.608L113.885 110.894L113.448 111.078L112.961 111.144L112.475 111.078L112.037 110.894L111.667 110.608L111.381 110.237L111.196 109.8L111.131 109.314L111.131 102.556L111.196 102.07L111.381 101.633L111.667 101.262L112.037 100.976L112.475 100.792L112.961 100.726" sodipodi:nodetypes="ccccccccccccccccccccccccccccccccccccccccccccccccccccccccccccccccccccccccccccccccccccccccccccccccccccccccccccccccccccccccccccccccccccccccccccccccccccccccccccccccccccccccccccccccccccccccccccccccccccccccccccccccccccccccccccccccccccccccccccccccccccccccccccccccccccccccccccccccccccccccccccccccccccccccccccccccccc"/>
  <ellipse id="shape03" transform="matrix(1.17314797547299 0 0 1.17314797547299 22.5244411290814 14.7565212593831)" rx="13.2" ry="9.90750125095705" cx="13.2" cy="9.90750125095705" fill="none" stroke="#4c4c4c" stroke-width="1.2" stroke-linecap="square" stroke-linejoin="bevel"/>
 </g>
</svg>