<?xml version="1.0" standalone="no"?>
<!DOCTYPE svg PUBLIC "-//W3C//DTD SVG 20010904//EN" "http://www.w3.org/TR/2001/REC-SVG-20010904/DTD/svg10.dtd">
<!-- Created using Krita: https://krita.org -->
<svg xmlns="http://www.w3.org/2000/svg" 
    xmlns:xlink="http://www.w3.org/1999/xlink"
    xmlns:krita="http://krita.org/namespaces/svg/krita"
    xmlns:sodipodi="http://sodipodi.sourceforge.net/DTD/sodipodi-0.dtd"
    width="240pt"
    height="240pt"
    viewBox="0 0 240 240">
<defs/>
<g id="group0" transform="matrix(0.365143002172188 0 0 0.365143002172188 3.9866990652888 9.64179922923717)" fill="none">
  <rect id="shape01" transform="matrix(4.62163915541007 0 0 4.62163915541007 216.027719677254 216.856737315718)" fill="#000000" fill-rule="evenodd" stroke-opacity="0" stroke="#000000" stroke-width="0" stroke-linecap="square" stroke-linejoin="bevel" width="43.44" height="35.76"/>
  <path id="_x23_F7EC13" transform="matrix(1.10919339729842 0 0 1.10919339729842 -7.45133417190402e-08 0)" fill="#f7ec13" stroke="#000000" stroke-width="7.2" stroke-linecap="square" stroke-linejoin="bevel" d="M572.542 209.233C573.214 208.578 572.843 207.436 571.914 207.302L381.014 179.563C377.47 179.036 374.429 176.827 372.847 173.649L287.458 0.6315C287.042 -0.2105 285.842 -0.2105 285.426 0.6315L200.053 173.617C198.494 176.804 195.437 179.037 191.89 179.56L0.971093 207.302C0.0420943 207.436 -0.328907 208.578 0.343093 209.233L138.479 343.884C141.041 346.375 142.211 349.976 141.604 353.508L108.995 543.633C108.836 544.558 109.808 545.264 110.639 544.827L281.385 455.059C284.564 453.401 288.324 453.401 291.471 455.044L462.246 544.826C463.077 545.263 464.048 544.557 463.89 543.632L431.281 353.504C430.693 349.924 431.869 346.353 434.414 343.877ZM241.433 328.074C225.833 328.074 220.634 300.012 220.634 265.396C220.634 230.78 225.834 202.718 241.433 202.718C257.032 202.718 262.233 230.78 262.233 265.396C262.233 300.012 257.033 328.074 241.433 328.074ZM331.452 328.074C315.852 328.074 310.653 300.012 310.653 265.396C310.653 230.78 315.853 202.718 331.452 202.718C347.051 202.718 352.252 230.78 352.252 265.396C352.252 300.012 347.052 328.074 331.452 328.074Z" sodipodi:nodetypes="ccccccccccccccccccccccccccccccc"/>
  <path id="_x23_F2F2F3" transform="matrix(1.10919339729842 0 0 1.10919339729842 257.37734033514 239.42882295074)" fill="#f2f2f3" stroke-opacity="0" stroke="#000000" stroke-width="0" stroke-linecap="square" stroke-linejoin="bevel" d="M108.806 17.025C108.806 26.428 104.6 34.05 99.413 34.05C94.225 34.05 90.02 26.427 90.02 17.025C90.02 7.622 94.226 0 99.413 0C104.6 0 108.806 7.622 108.806 17.025ZM9.393 0C4.205 0 0 7.623 0 17.025C0 26.428 4.206 34.05 9.393 34.05C14.581 34.05 18.786 26.427 18.786 17.025C18.786 7.622 14.581 0 9.393 0Z" sodipodi:nodetypes="cccccccccc"/>
 </g>
</svg>
