<svg xmlns="http://www.w3.org/2000/svg" xmlns:xlink="http://www.w3.org/1999/xlink" xmlns:krita="http://krita.org/namespaces/svg/krita" xmlns:sodipodi="http://sodipodi.sourceforge.net/DTD/sodipodi-0.dtd" viewBox="80.37 80.51 79.27 78.99">
<defs/>
<g id="group0" transform="translate(80.3660633205947, 80.5052446671643)" fill="none">
  <path id="shape0" transform="translate(-80.3660633205947, -80.5052446671643)" fill="#595959" fill-rule="evenodd" stroke-opacity="0" stroke="#000000" stroke-width="0" stroke-linecap="square" stroke-linejoin="bevel" d="M116.951 81.9772L109.755 83.4765L102.708 86.474L95.4368 91.4223L90.5646 96.1443L86.6653 101.992L83.967 108.438L82.0183 114.811L82.2425 122.682L82.5428 128.529L85.3922 135.35L90.3394 140.597L95.662 143.596L109.233 144.008L109.202 143.679L109.171 143.26L109.148 142.823L109.132 142.368L109.135 141.974L109.141 141.589L109.152 141.213L109.167 140.846L109.187 140.488L109.21 140.141L109.238 139.803L109.269 139.477L109.305 139.162L109.344 138.858L109.388 138.566L109.435 138.287L109.487 138.02L109.542 137.767L109.6 137.527L109.663 137.301L109.729 137.089L109.798 136.892L109.871 136.71L109.948 136.544L110.028 136.393L110.111 136.259L110.198 136.142L110.287 136.041L110.381 135.958L110.477 135.893L110.576 135.847L110.889 135.776L111.237 135.743L111.586 135.755L111.904 135.821L112.157 135.95L112.275 136.054L112.387 136.174L112.493 136.309L112.594 136.459L112.69 136.623L112.78 136.802L112.864 136.993L112.943 137.197L113.018 137.414L113.087 137.641L113.151 137.88L113.211 138.129L113.265 138.387L113.315 138.655L113.361 138.931L113.402 139.216L113.438 139.507L113.471 139.806L113.499 140.11L113.523 140.421L113.543 140.736L113.559 141.056L113.572 141.379L113.581 141.706L113.586 142.036L113.588 142.368L113.583 142.637L113.572 142.91L113.553 143.187L113.527 143.467L113.495 143.749L113.457 144.031L113.441 144.136L120.324 144.346L126.554 144.102L126.543 144.031L126.505 143.749L126.473 143.467L126.447 143.187L126.428 142.91L126.417 142.637L126.412 142.368L126.414 142.036L126.419 141.706L126.428 141.379L126.441 141.056L126.457 140.736L126.477 140.421L126.501 140.11L126.529 139.806L126.562 139.507L126.598 139.216L126.639 138.931L126.685 138.655L126.735 138.387L126.789 138.129L126.849 137.88L126.913 137.641L126.982 137.414L127.057 137.197L127.136 136.993L127.22 136.802L127.31 136.623L127.406 136.459L127.507 136.309L127.613 136.174L127.725 136.054L127.843 135.95L128.096 135.821L128.414 135.755L128.763 135.743L129.111 135.776L129.424 135.847L129.523 135.893L129.619 135.958L129.713 136.041L129.802 136.142L129.889 136.259L129.972 136.393L130.052 136.544L130.129 136.71L130.202 136.892L130.271 137.089L130.337 137.301L130.4 137.527L130.458 137.767L130.513 138.02L130.565 138.287L130.612 138.566L130.656 138.858L130.695 139.162L130.731 139.477L130.762 139.803L130.79 140.141L130.813 140.488L130.833 140.846L130.848 141.213L130.859 141.589L130.865 141.974L130.868 142.368L130.852 142.823L130.829 143.26L130.798 143.679L130.774 143.937L143.338 143.447L152.034 138.423L156.906 129.654L158.105 118.709L154.657 105.365L148.96 96.1443L142.213 89.5477L131.044 83.6256L123.173 81.752L116.951 81.9772M120.166 85.8282L119.667 85.8344L119.17 85.8531L118.678 85.884L118.188 85.927L117.703 85.982L117.221 86.0487L116.743 86.1271L116.269 86.2169L115.8 86.3181L115.334 86.4305L114.874 86.5539L114.418 86.6882L113.967 86.8332L113.521 86.9888L113.081 87.1547L112.645 87.331L112.216 87.5174L111.791 87.7137L111.373 87.9198L110.961 88.1356L110.555 88.3609L110.155 88.5956L109.762 88.8394L109.375 89.0923L108.995 89.354L108.622 89.6245L108.256 89.9036L107.897 90.1912L107.546 90.487L107.202 90.7909L106.866 91.1028L106.538 91.4225L106.218 91.7499L105.906 92.0849L105.602 92.4271L105.307 92.7766L105.02 93.1332L104.743 93.4967L104.474 93.8669L104.214 94.2437L103.964 94.6269L103.723 95.0165L103.492 95.4122L103.271 95.8139L103.059 96.2214L102.857 96.6346L102.666 97.0534L102.485 97.4775L102.315 97.9068L102.155 98.3413L102.006 98.7806L101.868 99.2247L101.742 99.6734L101.626 100.127L101.523 100.584L101.43 101.046L101.35 101.511L101.281 101.981L101.225 102.454L101.181 102.931L101.149 103.411L101.13 103.895L101.124 104.381L101.13 104.868L101.149 105.352L101.181 105.832L101.225 106.309L101.281 106.783L101.35 107.252L101.43 107.718L101.523 108.18L101.626 108.638L101.742 109.091L101.868 109.54L102.006 109.985L102.155 110.424L102.315 110.859L102.485 111.288L102.666 111.713L102.857 112.131L103.059 112.545L103.271 112.952L103.492 113.354L103.723 113.75L103.964 114.14L104.214 114.523L104.474 114.9L104.743 115.27L105.02 115.634L105.307 115.99L105.602 116.34L105.906 116.682L106.218 117.017L106.538 117.345L106.866 117.664L107.202 117.976L107.546 118.28L107.897 118.576L108.256 118.864L108.622 119.143L108.995 119.413L109.375 119.675L109.762 119.928L110.155 120.172L110.555 120.406L110.961 120.632L111.373 120.848L111.791 121.054L112.216 121.25L112.645 121.436L113.081 121.613L113.521 121.779L113.967 121.934L114.418 122.079L114.874 122.213L115.334 122.337L115.8 122.449L116.269 122.55L116.743 122.64L117.221 122.718L117.703 122.785L118.188 122.84L118.678 122.883L119.17 122.914L119.667 122.933L120.166 122.939L120.665 122.933L121.162 122.914L121.654 122.883L122.144 122.84L122.63 122.785L123.112 122.718L123.59 122.64L124.064 122.55L124.533 122.449L124.999 122.337L125.459 122.213L125.915 122.079L126.366 121.934L126.812 121.779L127.253 121.613L127.688 121.436L128.118 121.25L128.543 121.054L128.961 120.848L129.373 120.632L129.78 120.406L130.18 120.172L130.573 119.928L130.96 119.675L131.34 119.413L131.713 119.143L132.079 118.864L132.438 118.576L132.789 118.28L133.133 117.976L133.469 117.664L133.798 117.345L134.118 117.017L134.43 116.682L134.734 116.34L135.029 115.99L135.315 115.634L135.593 115.27L135.862 114.9L136.121 114.523L136.372 114.14L136.613 113.75L136.844 113.354L137.066 112.952L137.277 112.545L137.479 112.131L137.67 111.713L137.851 111.288L138.022 110.859L138.181 110.424L138.33 109.985L138.468 109.54L138.595 109.091L138.71 108.638L138.814 108.18L138.906 107.718L138.987 107.252L139.055 106.783L139.112 106.309L139.156 105.832L139.188 105.352L139.207 104.868L139.213 104.381L139.207 103.895L139.188 103.411L139.156 102.931L139.112 102.454L139.055 101.981L138.987 101.511L138.906 101.046L138.814 100.584L138.71 100.127L138.595 99.6734L138.468 99.2247L138.33 98.7806L138.181 98.3413L138.022 97.9068L137.851 97.4775L137.67 97.0534L137.479 96.6346L137.277 96.2214L137.066 95.8139L136.844 95.4122L136.613 95.0165L136.372 94.6269L136.121 94.2437L135.862 93.8669L135.593 93.4967L135.315 93.1332L135.029 92.7766L134.734 92.4271L134.43 92.0849L134.118 91.7499L133.798 91.4225L133.469 91.1028L133.133 90.7909L132.789 90.487L132.438 90.1912L132.079 89.9036L131.713 89.6245L131.34 89.354L130.96 89.0923L130.573 88.8394L130.18 88.5956L129.78 88.3609L129.373 88.1356L128.961 87.9198L128.543 87.7137L128.118 87.5174L127.688 87.331L127.253 87.1547L126.812 86.9888L126.366 86.8332L125.915 86.6882L125.459 86.5539L124.999 86.4305L124.533 86.3181L124.064 86.2169L123.59 86.1271L123.112 86.0487L122.63 85.982L122.144 85.927L121.654 85.884L121.162 85.8531L120.665 85.8344L120.166 85.8282M157.272 123.209L157.271 123.238L157.271 123.269L157.266 123.59L157.256 123.925L157.242 124.276L157.241 124.297L157.24 124.318L157.223 124.591L157.204 124.875L157.2 124.908L157.198 124.939L157.172 125.246L157.14 125.567L157.138 125.574L157.1 125.907L157.056 126.257L157.05 126.295L157.045 126.335L156.995 126.691L156.938 127.066L156.933 127.1L156.927 127.135L156.927 127.133L156.883 127.403L156.836 127.681L156.785 127.969L156.73 128.268L156.671 128.577L156.457 128.367L156.244 128.154L156.034 127.936L155.827 127.715L155.622 127.49L155.42 127.262L155.221 127.03L155.024 126.795L154.829 126.557L154.638 126.314L154.449 126.069L154.263 125.82L154.08 125.568L153.899 125.313L153.722 125.054L153.547 124.793L153.375 124.528L153.206 124.26L153.04 123.989L152.878 123.715L152.718 123.438L152.561 123.158L152.408 122.875L152.257 122.59L152.11 122.301L151.966 122.01L151.826 121.716L151.688 121.419L151.554 121.12L151.423 120.817L151.296 120.513L151.172 120.205L151.051 119.896L150.934 119.583L150.821 119.269L150.711 118.952L150.604 118.632L150.502 118.31L150.402 117.986L150.307 117.66L150.215 117.331L150.127 117.001L150.043 116.668L149.962 116.333L149.885 115.996L149.813 115.657L149.744 115.316L149.679 114.973L149.618 114.628L149.561 114.281L149.508 113.932L149.459 113.582L149.414 113.23L149.373 112.876L149.336 112.52L149.304 112.163L149.276 111.804L149.252 111.444L149.232 111.082L149.217 110.719L149.206 110.354L149.199 109.988L149.197 109.62L149.198 109.368L149.201 109.116L149.206 108.865L149.214 108.615L149.224 108.365L149.235 108.117L149.249 107.868L149.265 107.621L149.282 107.374L149.302 107.128L149.324 106.883L149.348 106.639L149.374 106.395L149.402 106.152L149.431 105.91L149.463 105.669L149.497 105.429L149.532 105.189L149.57 104.95L149.609 104.712L149.65 104.475L149.693 104.239L149.738 104.004L149.785 103.769L149.833 103.536L149.884 103.303L149.936 103.071L149.99 102.841L150.045 102.611L150.103 102.382L150.162 102.154L150.222 101.927L150.285 101.701L150.349 101.476L150.415 101.252L150.482 101.029L150.551 100.807L150.622 100.586L150.627 100.595L150.631 100.603L150.722 100.791L150.87 101.081L151.052 101.433L151.246 101.803L151.429 102.15L151.579 102.431L151.658 102.578L151.691 102.641L151.86 102.936L152.026 103.232L152.19 103.529L152.352 103.827L152.511 104.126L152.668 104.427L152.822 104.728L152.974 105.03L153.124 105.333L153.271 105.637L153.416 105.942L153.558 106.247L153.698 106.554L153.835 106.861L153.97 107.169L154.102 107.478L154.231 107.787L154.359 108.098L154.483 108.408L154.605 108.72L154.725 109.032L154.841 109.344L154.956 109.657L155.067 109.971L155.176 110.285L155.283 110.599L155.387 110.914L155.488 111.229L155.586 111.545L155.682 111.861L155.775 112.177L155.866 112.493L155.953 112.81L156.038 113.127L156.121 113.444L156.2 113.761L156.277 114.079L156.351 114.396L156.422 114.713L156.491 115.031L156.557 115.348L156.619 115.666L156.68 115.983L156.737 116.301L156.791 116.618L156.843 116.935L156.892 117.252L156.937 117.569L156.98 117.885L157.021 118.201L157.058 118.517L157.092 118.833L157.123 119.148L157.152 119.463L157.177 119.778L157.2 120.092L157.219 120.405L157.236 120.719L157.25 121.031L157.26 121.343L157.268 121.655L157.272 121.966L157.274 122.276L157.274 122.766L157.274 122.985L157.272 123.209M83.3013 128.664L83.2422 128.356L83.1872 128.06L83.1359 127.775L83.0883 127.498L83.0441 127.23L83.0431 127.232L83.0337 127.171L83.0251 127.111L82.972 126.768L82.925 126.44L82.9119 126.348L82.901 126.256L82.8671 125.994L82.8369 125.742L82.8272 125.66L82.8189 125.58L82.7903 125.304L82.7669 125.04L82.7595 124.952L82.7529 124.865L82.7345 124.619L82.7198 124.382L82.7163 124.312L82.7128 124.243L82.7033 124.034L82.6968 123.832L82.6953 123.792L82.6938 123.753L82.6887 123.531L82.6858 123.313L82.6844 123.252L82.6838 123.191L82.6824 122.988L82.6818 122.787L82.6823 122.531L82.6828 122.276L82.6843 121.966L82.6889 121.655L82.6965 121.343L82.707 121.031L82.7206 120.719L82.7372 120.406L82.7568 120.092L82.7793 119.778L82.8048 119.463L82.8332 119.149L82.8645 118.833L82.8988 118.518L82.936 118.202L82.9761 117.885L83.0191 117.569L83.0649 117.252L83.1137 116.935L83.1652 116.618L83.2197 116.301L83.2769 115.984L83.337 115.666L83.3999 115.349L83.4656 115.031L83.5341 114.714L83.6054 114.396L83.6794 114.079L83.7562 113.761L83.8358 113.444L83.9181 113.127L84.0031 112.81L84.0908 112.494L84.1812 112.177L84.2743 111.861L84.3701 111.545L84.4686 111.229L84.5697 110.914L84.6735 110.599L84.7799 110.285L84.8889 109.971L85.0006 109.657L85.1148 109.344L85.2316 109.032L85.3511 108.72L85.4731 108.409L85.5976 108.098L85.7247 107.788L85.8543 107.478L85.9865 107.169L86.1212 106.861L86.2584 106.554L86.398 106.248L86.5402 105.942L86.6848 105.637L86.8319 105.333L86.9814 105.03L87.1334 104.728L87.2878 104.427L87.4446 104.127L87.6039 103.827L87.7655 103.529L87.9295 103.232L88.0958 102.936L88.2646 102.641L88.2742 102.624L88.2936 102.586L88.3534 102.476L88.4387 102.317L88.5923 102.027L88.7676 101.694L88.9467 101.352L89.1114 101.034L89.2437 100.773L89.3255 100.604L89.3586 100.529L89.3895 100.462L89.4627 100.685L89.5341 100.91L89.6038 101.135L89.6718 101.362L89.7381 101.59L89.8027 101.819L89.8655 102.049L89.9265 102.279L89.9857 102.511L90.0431 102.744L90.0987 102.978L90.1525 103.212L90.2044 103.448L90.2545 103.685L90.3027 103.922L90.349 104.161L90.3934 104.4L90.4359 104.64L90.4765 104.881L90.5151 105.123L90.5517 105.366L90.5864 105.61L90.6191 105.855L90.6498 106.1L90.6784 106.347L90.7051 106.594L90.7296 106.842L90.7522 107.09L90.7726 107.34L90.791 107.59L90.8072 107.842L90.8213 108.093L90.8333 108.346L90.8432 108.599L90.8509 108.854L90.8564 109.108L90.8597 109.364L90.8608 109.62L90.8586 109.99L90.8519 110.359L90.8407 110.726L90.8252 111.091L90.8053 111.455L90.7811 111.818L90.7526 112.179L90.7199 112.538L90.6829 112.896L90.6417 113.252L90.5963 113.606L90.5468 113.959L90.4932 114.309L90.4355 114.658L90.3738 115.005L90.3081 115.35L90.2385 115.693L90.1648 116.034L90.0873 116.373L90.0059 116.71L89.9207 117.045L89.8316 117.378L89.7388 117.708L89.6423 118.036L89.542 118.362L89.438 118.686L89.3304 119.007L89.2192 119.326L89.1044 119.642L88.986 119.956L88.8642 120.267L88.7388 120.576L88.61 120.882L88.4778 121.186L88.3421 121.487L88.2032 121.785L88.0609 122.08L87.9153 122.373L87.7665 122.663L87.6144 122.95L87.4591 123.234L87.3007 123.515L87.1392 123.793L86.9745 124.068L86.8068 124.34L86.6361 124.608L86.4623 124.874L86.2856 125.137L86.106 125.396L85.9235 125.652L85.7381 125.904L85.5498 126.154L85.3588 126.4L85.165 126.642L84.9684 126.881L84.7692 127.117L84.5672 127.349L84.3627 127.577L84.1555 127.802L83.9457 128.023L83.7334 128.24L83.5186 128.454L83.3013 128.664" sodipodi:nodetypes="cccccccccccccccccccccccccccccccccccccccccccccccccccccccccccccccccccccccccccccccccccccccccccccccccccccccccccccccccccccccccccccccccccccccccccccccccccccccccccccccccccccccccccccccccccccccccccccccccccccccccccccccccccccccccccccccccccccccccccccccccccccccccccccccccccccccccccccccccccccccccccccccccccccccccccccccccccccccccccccccccccccccccccccccccccccccccccccccccccccccccccccccccccccccccccccccccccccccccccccccccccccccccccccccccccccccccccccccccccccccccccccccccccccccccccccccccccccccccccccccccccccccccccccccccccccccccccccccccccccccccccccccccccccccccccccccccccccccccccccccccccccccccccccccccccccccccccccccccccccccccccccccccccccccccccccccccccccccccccccccccccccccccccccccccccccccccccccccccccccccccccccccccccccccccccccccccccccccccccccccccccccccccccccccccccccccccccccccccccccccccccccccccccccccccccccccccccccccccccccccccccccccccccccccccccccccccccccccccccc"/>
  <path id="shape1" transform="translate(-80.3660633205947, -80.5052446671643)" fill="#737373" fill-rule="evenodd" stroke-opacity="0" stroke="#000000" stroke-width="0" stroke-linecap="square" stroke-linejoin="bevel" d="M116.202 130.402L122.198 130.402L131.419 132.426L139.14 135.426L142.288 138.348L143.188 141.572L142.438 146.444L140.19 152.366L134.791 155.965L125.722 158.064L115.901 157.614L106.381 156.114L99.6344 152.142L96.9361 145.695L96.1114 140.448L97.4605 137.524L104.957 133.027L110.879 131.302L116.202 130.402M126.412 142.368L126.414 142.036L126.419 141.706L126.428 141.379L126.441 141.056L126.457 140.736L126.477 140.421L126.501 140.11L126.529 139.806L126.562 139.507L126.598 139.216L126.639 138.931L126.685 138.655L126.735 138.387L126.789 138.129L126.849 137.88L126.913 137.641L126.982 137.414L127.057 137.197L127.136 136.993L127.22 136.802L127.31 136.623L127.406 136.459L127.507 136.309L127.613 136.174L127.725 136.054L127.843 135.95L128.096 135.821L128.414 135.755L128.763 135.743L129.111 135.776L129.424 135.847L129.523 135.893L129.619 135.958L129.713 136.041L129.802 136.142L129.889 136.259L129.972 136.393L130.052 136.544L130.129 136.71L130.202 136.892L130.271 137.089L130.337 137.301L130.4 137.527L130.458 137.767L130.513 138.02L130.565 138.287L130.612 138.566L130.656 138.858L130.695 139.162L130.731 139.477L130.762 139.803L130.79 140.141L130.813 140.488L130.833 140.846L130.848 141.213L130.859 141.589L130.865 141.974L130.868 142.368L130.852 142.823L130.829 143.26L130.798 143.679L130.76 144.08L130.716 144.462L130.666 144.827L130.611 145.173L130.551 145.501L130.486 145.811L130.418 146.102L130.346 146.376L130.271 146.632L130.194 146.869L130.114 147.088L130.033 147.29L129.952 147.473L129.87 147.639L129.787 147.786L129.706 147.915L129.625 148.027L129.546 148.12L129.469 148.196L129.394 148.253L129.323 148.293L129.048 148.354L128.8 148.403L128.555 148.418L128.291 148.377L127.985 148.259L127.613 148.042L127.549 147.889L127.483 147.722L127.415 147.54L127.346 147.345L127.276 147.138L127.205 146.919L127.135 146.69L127.066 146.452L126.997 146.204L126.93 145.95L126.865 145.688L126.802 145.421L126.742 145.149L126.686 144.873L126.634 144.594L126.586 144.313L126.543 144.031L126.505 143.749L126.473 143.467L126.447 143.187L126.428 142.91L126.417 142.637L126.412 142.368M113.588 142.368L113.586 142.036L113.581 141.706L113.572 141.379L113.559 141.056L113.543 140.736L113.523 140.421L113.499 140.11L113.471 139.806L113.438 139.507L113.402 139.216L113.361 138.931L113.315 138.655L113.265 138.387L113.211 138.129L113.151 137.88L113.087 137.641L113.018 137.414L112.943 137.197L112.864 136.993L112.78 136.802L112.69 136.623L112.594 136.459L112.493 136.309L112.387 136.174L112.275 136.054L112.157 135.95L111.904 135.821L111.586 135.755L111.237 135.743L110.889 135.776L110.576 135.847L110.477 135.893L110.381 135.958L110.287 136.041L110.198 136.142L110.111 136.259L110.028 136.393L109.948 136.544L109.871 136.71L109.798 136.892L109.729 137.089L109.663 137.301L109.6 137.527L109.542 137.767L109.487 138.02L109.435 138.287L109.388 138.566L109.344 138.858L109.305 139.162L109.269 139.477L109.238 139.803L109.21 140.141L109.187 140.488L109.167 140.846L109.152 141.213L109.141 141.589L109.135 141.974L109.132 142.368L109.148 142.823L109.171 143.26L109.202 143.679L109.24 144.08L109.284 144.462L109.334 144.827L109.389 145.173L109.449 145.501L109.514 145.811L109.582 146.102L109.654 146.376L109.729 146.632L109.806 146.869L109.886 147.088L109.967 147.29L110.048 147.473L110.13 147.639L110.213 147.786L110.294 147.915L110.375 148.027L110.454 148.12L110.531 148.196L110.606 148.253L110.677 148.293L110.952 148.354L111.2 148.403L111.445 148.418L111.709 148.377L112.015 148.259L112.387 148.042L112.451 147.889L112.517 147.722L112.585 147.54L112.654 147.345L112.724 147.138L112.795 146.919L112.865 146.69L112.934 146.452L113.003 146.204L113.07 145.95L113.135 145.688L113.198 145.421L113.258 145.149L113.314 144.873L113.366 144.594L113.414 144.313L113.457 144.031L113.495 143.749L113.527 143.467L113.553 143.187L113.572 142.91L113.583 142.637L113.588 142.368" sodipodi:nodetypes="ccccccccccccccccccccccccccccccccccccccccccccccccccccccccccccccccccccccccccccccccccccccccccccccccccccccccccccccccccccccccccccccccccccccccccccccccccccccccccccccccccccccccccccccccccccccccccccccccccccccccccccccccccccccccccccccccccccccccccccccccccc"/>
  <path id="path3514" transform="matrix(1.00085540997024 0 0 -1.00085540997024 8.88178419700125e-16 78.9895106656714)" fill="#4c4c4c" stroke-opacity="0" stroke="#000000" stroke-width="0" stroke-linecap="square" stroke-linejoin="bevel" d="M75.5959 31.586C75.5819 31.53 75.4699 31.065 75.4619 31.034C75.4549 31.011 75.4479 30.981 75.4479 30.981C75.1259 29.838 74.6539 28.648 74.0429 27.462L74.0429 27.463C72.0059 23.512 68.4139 19.633 63.6409 17.886C63.6399 17.885 63.6389 17.885 63.6379 17.884C63.6449 19.419 63.5259 20.429 63.5229 20.463L63.4949 20.753L63.3199 20.996C58.9559 26.613 50.0469 30.232 39.4219 30.259C28.6699 30.232 19.3589 26.689 15.1519 20.988L14.9759 20.746L14.9499 20.456C14.9469 20.423 14.8239 19.534 14.8019 18.158C13.9189 18.511 13.0719 18.931 12.2629 19.412C12.2599 19.414 12.2569 19.415 12.2539 19.417C11.7159 19.738 11.1959 20.086 10.6949 20.461L10.6939 20.462C9.94285 21.024 9.23385 21.644 8.57485 22.316C8.57185 22.319 8.56785 22.323 8.56385 22.327C8.12585 22.774 7.71185 23.243 7.31985 23.733C7.31785 23.737 7.31485 23.74 7.31285 23.743C6.72385 24.482 6.18785 25.269 5.70985 26.099C5.70485 26.107 5.69985 26.115 5.69585 26.123C5.38085 26.671 5.09185 27.238 4.82885 27.822L4.81785 27.849C4.68685 28.143 4.56185 28.44 4.44385 28.742C4.16285 29.464 3.91985 30.209 3.72185 30.976C3.72185 30.979 3.62785 31.4 3.62785 31.4L3.60985 31.534C3.19385 33.473 2.99085 35.517 2.99085 37.616C2.99085 44.677 5.28285 52.373 9.46485 58.837C9.61485 59.064 9.69585 59.188 9.75485 59.281L9.74485 59.262C16.6929 69.655 27.2649 75.573 39.5139 75.926L39.8449 75.926C52.0189 75.576 62.5469 69.625 69.4919 59.168C69.4919 59.167 69.7659 58.746 69.7659 58.746L69.7599 58.733C73.9509 52.232 76.2079 44.72 76.2079 37.7C76.2079 35.606 76.0059 33.554 75.5959 31.586M54.3059 5.282C49.6749 3.471 44.8529 3.077 41.6269 3.061L40.4219 3.059C40.4219 3.039 39.3699 3.046 39.3659 3.046C39.3409 3.046 38.2929 3.039 38.2929 3.039C38.2879 3.059 37.0779 3.061 37.0779 3.061C33.8569 3.077 29.0339 3.471 24.4049 5.282C17.4099 8.01 17.1129 16.289 17.1129 19.185C17.1129 19.598 17.1209 19.695 17.1349 19.866C21.1079 24.467 29.4509 27.284 39.2979 27.309C49.2599 27.284 57.4089 24.018 61.3859 19.806C61.3939 19.635 61.4039 19.537 61.4039 19.124C61.4039 16.228 61.3059 8.01 54.3059 5.282M72.2789 60.357L72.2779 60.358L72.2809 60.374L71.9969 60.811C64.4869 72.119 53.0989 78.546 39.9199 78.921L39.8989 78.922L39.4599 78.922L39.4399 78.921C26.1889 78.543 14.7579 72.152 7.25385 60.927C7.23785 60.901 6.95685 60.477 6.95685 60.477C1.10685 51.436 -1.29615 40.108 0.679858 30.905L0.682858 30.917C0.712858 30.709 0.756858 30.493 0.814858 30.251C1.34585 28.2 2.14185 26.28 3.15985 24.527C3.16085 24.524 3.16185 24.523 3.16385 24.521C3.56985 23.821 4.01085 23.15 4.48585 22.507C4.48685 22.506 4.48785 22.504 4.48885 22.503C4.72285 22.186 4.96485 21.875 5.21485 21.573L5.24185 21.541C5.74185 20.94 6.27085 20.366 6.82785 19.825C6.83785 19.816 6.84785 19.807 6.85785 19.797C7.13085 19.533 7.41085 19.277 7.69785 19.028C7.71885 19.011 7.73985 18.993 7.75985 18.975C8.33685 18.478 8.94085 18.013 9.56785 17.58L9.62585 17.539C9.93285 17.33 10.2439 17.13 10.5619 16.937C10.5949 16.917 10.6269 16.898 10.6599 16.878C11.3049 16.49 11.9709 16.136 12.6579 15.818C12.6859 15.806 12.7139 15.792 12.7419 15.778C13.0769 15.626 13.4159 15.482 13.7599 15.347C13.8029 15.329 13.8449 15.314 13.8879 15.297C14.2399 15.161 14.5929 15.032 14.9529 14.915C15.4449 10.476 17.3359 4.632 23.6279 2.385C28.6179 0.604 33.6619 0.038 37.0709 0.024C37.0779 0.024 38.2689 0.019 38.2689 0.019C38.2929 3.55271e-15 39.3659 0.004 39.3659 0.004L40.4219 0C40.4439 0.019 41.6339 0.024 41.6339 0.024C45.0459 0.038 50.0729 0.657 55.0819 2.385C61.0099 4.43 62.8979 10.191 63.4409 14.666C63.7879 14.767 64.1299 14.877 64.4669 14.995L64.6219 15.051C64.9279 15.161 65.2299 15.277 65.5259 15.4C65.5529 15.412 65.5799 15.423 65.6079 15.435C65.9319 15.571 66.2509 15.717 66.5649 15.869C66.6029 15.888 66.6399 15.907 66.6779 15.926C66.9599 16.066 67.2379 16.211 67.5109 16.363C67.5489 16.384 67.5869 16.404 67.6249 16.426C67.9279 16.596 68.2249 16.774 68.5169 16.957C68.5339 16.968 68.5509 16.98 68.5689 16.99C68.8399 17.163 69.1059 17.343 69.3669 17.526C69.4079 17.555 69.4489 17.583 69.4889 17.611C70.0419 18.006 70.5729 18.424 71.0799 18.863C71.1179 18.897 71.1579 18.93 71.1959 18.963C71.6999 19.405 72.1829 19.867 72.6419 20.347C72.6739 20.381 72.7069 20.415 72.7399 20.449C73.1979 20.934 73.6329 21.434 74.0439 21.948C74.0689 21.979 74.0919 22.009 74.1169 22.04C74.3089 22.282 74.4939 22.526 74.6759 22.774C74.6899 22.792 74.7029 22.81 74.7169 22.829C74.9109 23.096 75.0999 23.366 75.2819 23.639C75.2949 23.66 75.3089 23.682 75.3239 23.702C75.4909 23.954 75.6519 24.208 75.8079 24.464L75.8639 24.555C76.0319 24.832 76.1939 25.11 76.3479 25.391C76.3489 25.392 76.3489 25.393 76.3499 25.394C77.2239 26.978 77.8899 28.599 78.3309 30.17L78.3539 30.249C78.3619 30.279 78.5159 30.916 78.5159 30.916L78.5259 30.961C80.4749 40.275 78.1399 51.265 72.2789 60.357" sodipodi:nodetypes="cccccccccccccccccccccccccccccccccccccccccccccccccccccccccccccccccccccccccccccccccccccccccccccccccccccccccccccccccccccccccccccc"/>
 </g>
</svg>