<?xml version="1.0" standalone="no"?>
<!DOCTYPE svg PUBLIC "-//W3C//DTD SVG 20010904//EN" "http://www.w3.org/TR/2001/REC-SVG-20010904/DTD/svg10.dtd">
<!-- Created using Krita: https://krita.org -->
<svg xmlns="http://www.w3.org/2000/svg" 
    xmlns:xlink="http://www.w3.org/1999/xlink"
    xmlns:krita="http://krita.org/namespaces/svg/krita"
    xmlns:sodipodi="http://sodipodi.sourceforge.net/DTD/sodipodi-0.dtd"
    width="240pt"
    height="240pt"
    viewBox="0 0 240 240">
<defs/>
<g id="group0" transform="matrix(2.14877987225764 0 0 2.14877987225764 11.0824835652075 11.4649619625666)" fill="none">
  <g id="g3484" transform="matrix(1.27999993852453 0 0 -1.27999993852453 46.7889308595098 1.88249590958803)" fill="none">
   <path id="path3486" transform="translate(-34.903, -62.315)" fill="#ed1c24" stroke-opacity="0" stroke="#000000" stroke-width="0" stroke-linecap="square" stroke-linejoin="bevel" d="M34.903 62.315L27.713 60.817L20.672 57.822L13.407 52.878L8.539 48.16L4.643 42.317L1.947 35.877L0 29.509L0.224 21.645L0.524 15.803L3.371 8.988L8.314 3.745L13.632 0.749L38.273 0L61.267 0.898L69.956 5.917L74.824 14.679L76.022 25.615L72.577 38.947L66.884 48.16L60.143 54.751L48.984 60.668L41.119 62.54Z" sodipodi:nodetypes="cccccccccccccccccccccccc"/>
  </g>
  <g id="g3488" transform="matrix(1.27999993852453 0 0 -1.27999993852453 45.830210905555 63.8137569351713)" fill="none">
   <path id="path3490" transform="translate(-20.073, -27.638)" fill="#fcd7a8" stroke-opacity="0" stroke="#000000" stroke-width="0" stroke-linecap="square" stroke-linejoin="bevel" d="M20.073 27.638L26.064 27.638L35.277 25.616L42.992 22.619L46.137 19.699L47.036 16.478L46.287 11.61L44.041 5.693L38.647 2.097L29.585 0L19.773 0.45L10.261 1.948L3.52 5.917L0.824 12.358L0 17.601L1.348 20.522L8.838 25.016L14.755 26.739Z" sodipodi:nodetypes="ccccccccccccccccccc"/>
  </g>
  <g id="g3492" transform="matrix(1.27999993852453 0 0 -1.27999993852453 39.1189152278832 71.3875165714209)" fill="none">
   <path id="path3494" transform="translate(-0.711999999999996, -5.431)" fill="#ffffff" stroke-opacity="0" stroke="#000000" stroke-width="0" stroke-linecap="square" stroke-linejoin="bevel" d="M0.712 5.431L0.038 3.858L0 2.285L0.412 0.786L1.349 0L2.435 0.488L3.108 1.498L3.034 3.708L2.734 5.168L2.173 5.954L1.086 5.73Z" sodipodi:nodetypes="cccccccccccc"/>
  </g>
  <g id="g3496" transform="matrix(1.27999993852453 0 0 -1.27999993852453 60.0663702218249 71.4362845690787)" fill="none">
   <path id="path3498" transform="translate(-0.486000000000011, -4.86799999999998)" fill="#ffffff" stroke-opacity="0" stroke="#000000" stroke-width="0" stroke-linecap="square" stroke-linejoin="bevel" d="M0.486 4.868L0.037 3.745L0 2.472L0.149 1.198L0.711 0.037L2.209 0L3.182 1.086L2.958 2.996L2.658 4.606L1.947 5.205L1.048 5.43Z" sodipodi:nodetypes="cccccccccccc"/>
  </g>
  <g id="g3500" transform="matrix(1.27999993852453 0 0 -1.27999993852453 50.9001626620568 6.80755167304888)" fill="none">
   <path id="path3502" transform="translate(-19.026, -37.079)" fill="#ffffff" stroke-opacity="0" stroke="#000000" stroke-width="0" stroke-linecap="square" stroke-linejoin="bevel" d="M19.026 37.079C8.518 37.079 0 28.781 0 18.542C0 8.296 8.518 0 19.026 0C29.537 0 38.057 8.296 38.057 18.542C38.057 28.781 29.537 37.079 19.026 37.079" sodipodi:nodetypes="ccccc"/>
  </g>
  <g id="g3504" transform="matrix(1.27999993852453 0 0 -1.27999993852453 3.75392492638271 61.5900130419726)" fill="none">
   <path id="path3506" transform="translate(-0.619000000000001, 7.105427357601e-15)" fill="#ffffff" stroke-opacity="0" stroke="#000000" stroke-width="0" stroke-linecap="square" stroke-linejoin="bevel" d="M0.619 0C0.517 0.521 0.433 0.993 0.362 1.432C0.362 1.431 0.361 1.431 0.361 1.43C0.354 1.473 0.349 1.509 0.343 1.551C0.306 1.783 0.272 2.009 0.243 2.222C0.233 2.284 0.226 2.344 0.219 2.406C0.195 2.583 0.174 2.755 0.155 2.919C0.148 2.973 0.142 3.029 0.137 3.081C0.116 3.27 0.099 3.447 0.085 3.621C0.08 3.68 0.075 3.737 0.071 3.795C0.057 3.962 0.047 4.124 0.038 4.278C0.036 4.325 0.033 4.371 0.031 4.417C0.024 4.559 0.018 4.694 0.015 4.827C0.014 4.854 0.013 4.881 0.012 4.906C0.008 5.057 0.005 5.202 0.004 5.346C0.003 5.386 0.002 5.427 0.002 5.468C0.001 5.604 0 5.739 0 5.872C0 6.043 0.001 6.213 0.001 6.382C0.001 12.885 2.013 19.826 5.578 26C5.58 26.004 5.592 26.025 5.607 26.055C5.638 26.11 5.687 26.203 5.752 26.324C6.025 26.84 6.537 27.81 6.638 28.036C6.661 28.089 6.682 28.135 6.702 28.178C7.638 25.355 8.172 22.275 8.172 19.027C8.172 11.253 5.204 4.363 0.619 0" sodipodi:nodetypes="ccccccccccccccccccccccccc"/>
  </g>
  <g id="g3508" transform="matrix(1.27999993852453 0 0 -1.27999993852453 98.355136382903 54.6137573770262)" fill="none">
   <path id="path3510" transform="translate(-8.06799999999998, -5.364)" fill="#ffffff" stroke-opacity="0" stroke="#000000" stroke-width="0" stroke-linecap="square" stroke-linejoin="bevel" d="M8.068 5.364C8.068 5.344 8.067 5.325 8.067 5.304C8.064 4.989 8.055 4.658 8.038 4.298C8.037 4.283 8.037 4.27 8.036 4.256C8.026 4.078 8.014 3.892 8 3.699C7.997 3.677 7.996 3.656 7.994 3.635C7.978 3.434 7.96 3.227 7.936 3.008C7.935 3.006 7.935 3.003 7.934 3.001C7.911 2.786 7.883 2.557 7.852 2.318C7.848 2.293 7.845 2.268 7.841 2.24C7.81 2.01 7.775 1.765 7.735 1.51C7.731 1.486 7.728 1.466 7.724 1.441L7.724 1.443C7.653 1.001 7.57 0.525 7.468 0C2.937 4.368 0 11.214 0 18.941C0 22.138 0.519 25.178 1.424 27.967C1.427 27.96 1.43 27.956 1.433 27.95C1.542 27.706 2.13 26.593 2.38 26.124C2.445 26.003 2.488 25.922 2.492 25.914C6.058 19.74 8.07 12.799 8.07 6.296L8.07 5.976L8.07 5.806C8.07 5.662 8.07 5.514 8.068 5.364" sodipodi:nodetypes="ccccccccccccccccccccccc"/>
  </g>
  <g id="g3512" transform="matrix(1.27999993852453 0 0 -1.27999993852453 96.7626884593847 60.5900770899972)" fill="none">
   <path id="path3514" transform="translate(-75.5958561623985, -31.586)" fill="#181210" stroke-opacity="0" stroke="#000000" stroke-width="0" stroke-linecap="square" stroke-linejoin="bevel" d="M75.5959 31.586C75.5819 31.53 75.4699 31.065 75.4619 31.034C75.4549 31.011 75.4479 30.981 75.4479 30.981C75.1259 29.838 74.6539 28.648 74.0429 27.462L74.0429 27.463C72.0059 23.512 68.4139 19.633 63.6409 17.886C63.6399 17.885 63.6389 17.885 63.6379 17.884C63.6449 19.419 63.5259 20.429 63.5229 20.463L63.4949 20.753L63.3199 20.996C58.9559 26.613 50.0469 30.232 39.4219 30.259C28.6699 30.232 19.3589 26.689 15.1519 20.988L14.9759 20.746L14.9499 20.456C14.9469 20.423 14.8239 19.534 14.8019 18.158C13.9189 18.511 13.0719 18.931 12.2629 19.412C12.2599 19.414 12.2569 19.415 12.2539 19.417C11.7159 19.738 11.1959 20.086 10.6949 20.461L10.6939 20.462C9.94285 21.024 9.23385 21.644 8.57485 22.316C8.57185 22.319 8.56785 22.323 8.56385 22.327C8.12585 22.774 7.71185 23.243 7.31985 23.733C7.31785 23.737 7.31485 23.74 7.31285 23.743C6.72385 24.482 6.18785 25.269 5.70985 26.099C5.70485 26.107 5.69985 26.115 5.69585 26.123C5.38085 26.671 5.09185 27.238 4.82885 27.822L4.81785 27.849C4.68685 28.143 4.56185 28.44 4.44385 28.742C4.16285 29.464 3.91985 30.209 3.72185 30.976C3.72185 30.979 3.62785 31.4 3.62785 31.4L3.60985 31.534C3.19385 33.473 2.99085 35.517 2.99085 37.616C2.99085 44.677 5.28285 52.373 9.46485 58.837C9.61485 59.064 9.69585 59.188 9.75485 59.281L9.74485 59.262C16.6929 69.655 27.2649 75.573 39.5139 75.926L39.8449 75.926C52.0189 75.576 62.5469 69.625 69.4919 59.168C69.4919 59.167 69.7659 58.746 69.7659 58.746L69.7599 58.733C73.9509 52.232 76.2079 44.72 76.2079 37.7C76.2079 35.606 76.0059 33.554 75.5959 31.586M54.3059 5.282C49.6749 3.471 44.8529 3.077 41.6269 3.061L40.4219 3.059C40.4219 3.039 39.3699 3.046 39.3659 3.046C39.3409 3.046 38.2929 3.039 38.2929 3.039C38.2879 3.059 37.0779 3.061 37.0779 3.061C33.8569 3.077 29.0339 3.471 24.4049 5.282C17.4099 8.01 17.1129 16.289 17.1129 19.185C17.1129 19.598 17.1209 19.695 17.1349 19.866C21.1079 24.467 29.4509 27.284 39.2979 27.309C49.2599 27.284 57.4089 24.018 61.3859 19.806C61.3939 19.635 61.4039 19.537 61.4039 19.124C61.4039 16.228 61.3059 8.01 54.3059 5.282M72.2789 60.357L72.2779 60.358L72.2809 60.374L71.9969 60.811C64.4869 72.119 53.0989 78.546 39.9199 78.921L39.8989 78.922L39.4599 78.922L39.4399 78.921C26.1889 78.543 14.7579 72.152 7.25385 60.927C7.23785 60.901 6.95685 60.477 6.95685 60.477C1.10685 51.436 -1.29615 40.108 0.679856 30.905L0.682856 30.917C0.712856 30.709 0.756856 30.493 0.814856 30.251C1.34585 28.2 2.14185 26.28 3.15985 24.527C3.16085 24.524 3.16185 24.523 3.16385 24.521C3.56985 23.821 4.01085 23.15 4.48585 22.507C4.48685 22.506 4.48785 22.504 4.48885 22.503C4.72285 22.186 4.96485 21.875 5.21485 21.573L5.24185 21.541C5.74185 20.94 6.27085 20.366 6.82785 19.825C6.83785 19.816 6.84785 19.807 6.85785 19.797C7.13085 19.533 7.41085 19.277 7.69785 19.028C7.71885 19.011 7.73985 18.993 7.75985 18.975C8.33685 18.478 8.94085 18.013 9.56785 17.58L9.62585 17.539C9.93285 17.33 10.2439 17.13 10.5619 16.937C10.5949 16.917 10.6269 16.898 10.6599 16.878C11.3049 16.49 11.9709 16.136 12.6579 15.818C12.6859 15.806 12.7139 15.792 12.7419 15.778C13.0769 15.626 13.4159 15.482 13.7599 15.347C13.8029 15.329 13.8449 15.314 13.8879 15.297C14.2399 15.161 14.5929 15.032 14.9529 14.915C15.4449 10.476 17.3359 4.632 23.6279 2.385C28.6179 0.604 33.6619 0.038 37.0709 0.024C37.0779 0.024 38.2689 0.019 38.2689 0.019C38.2929 3.55271e-15 39.3659 0.004 39.3659 0.004L40.4219 0C40.4439 0.019 41.6339 0.024 41.6339 0.024C45.0459 0.038 50.0729 0.657 55.0819 2.385C61.0099 4.43 62.8979 10.191 63.4409 14.666C63.7879 14.767 64.1299 14.877 64.4669 14.995L64.6219 15.051C64.9279 15.161 65.2299 15.277 65.5259 15.4C65.5529 15.412 65.5799 15.423 65.6079 15.435C65.9319 15.571 66.2509 15.717 66.5649 15.869C66.6029 15.888 66.6399 15.907 66.6779 15.926C66.9599 16.066 67.2379 16.211 67.5109 16.363C67.5489 16.384 67.5869 16.404 67.6249 16.426C67.9279 16.596 68.2249 16.774 68.5169 16.957C68.5339 16.968 68.5509 16.98 68.5689 16.99C68.8399 17.163 69.1059 17.343 69.3669 17.526C69.4079 17.555 69.4489 17.583 69.4889 17.611C70.0419 18.006 70.5729 18.424 71.0799 18.863C71.1179 18.897 71.1579 18.93 71.1959 18.963C71.6999 19.405 72.1829 19.867 72.6419 20.347C72.6739 20.381 72.7069 20.415 72.7399 20.449C73.1979 20.934 73.6329 21.434 74.0439 21.948C74.0689 21.979 74.0919 22.009 74.1169 22.04C74.3089 22.282 74.4939 22.526 74.6759 22.774C74.6899 22.792 74.7029 22.81 74.7169 22.829C74.9109 23.096 75.0999 23.366 75.2819 23.639C75.2949 23.66 75.3089 23.682 75.3239 23.702C75.4909 23.954 75.6519 24.208 75.8079 24.464L75.8639 24.555C76.0319 24.832 76.1939 25.11 76.3479 25.391C76.3489 25.392 76.3489 25.393 76.3499 25.394C77.2239 26.978 77.8899 28.599 78.3309 30.17L78.3539 30.249C78.3619 30.279 78.5159 30.916 78.5159 30.916L78.5259 30.961C80.4749 40.275 78.1399 51.265 72.2789 60.357M48.7079 19.476C48.5249 19.002 48.2419 18.827 47.9289 18.826C47.6149 18.825 47.3369 19.001 47.1499 19.479C47.0049 19.85 46.9119 20.45 46.9109 20.968C46.9089 21.498 46.9859 22.09 47.1349 22.464C47.3199 22.926 47.6069 23.115 47.9139 23.116C48.2249 23.117 48.5219 22.887 48.7079 22.419C48.8569 22.047 48.9299 21.5 48.9319 20.974C48.9339 20.453 48.8529 19.848 48.7079 19.476M47.9719 23.992C45.9849 24.176 45.9879 21 45.9879 17.336C45.9879 13.673 46.2829 10.686 48.0269 10.704C49.8559 10.725 50.0909 13.815 50.0909 17.476C50.0909 21.139 49.6989 23.834 47.9719 23.992M32.1999 19.479C32.0139 19.001 31.7369 18.825 31.4219 18.826C31.1099 18.827 30.8259 19.002 30.6429 19.476C30.4979 19.848 30.4169 20.453 30.4179 20.974C30.4199 21.5 30.4929 22.047 30.6429 22.419C30.8289 22.887 31.1249 23.117 31.4359 23.116C31.7439 23.115 32.0319 22.926 32.2159 22.464C32.3649 22.09 32.4419 21.498 32.4399 20.968C32.4379 20.45 32.3459 19.85 32.1999 19.479M31.3789 23.992C29.6529 23.834 29.2599 21.139 29.2599 17.476C29.2599 13.815 29.4949 10.725 31.3239 10.704C33.0689 10.686 33.3639 13.673 33.3639 17.336C33.3639 21 33.3669 24.176 31.3789 23.992" sodipodi:nodetypes="cccccccccccccccccccccccccccccccccccccccccccccccccccccccccccccccccccccccccccccccccccccccccccccccccccccccccccccccccccccccccccccccccccccccccccccccccccccccccc"/>
  </g>
 </g>
</svg>
